<svg xmlns="http://www.w3.org/2000/svg" viewBox="0 0 382.67 651.97"><defs><style>.cls-1{fill:#fece63;}.cls-2{fill:#7a7f54;}.cls-3{fill:#7a665f;}</style></defs><title>Sunflower</title><g id="Слой_2" data-name="Слой 2"><path class="cls-1" d="M232.5,275.5a58.85,58.85,0,0,1,16.5-10,59.46,59.46,0,0,1,26.5-4c1.68-6.38,3-16.12-1-26-3.29-8.16-8.77-12.88-19-21.5a153.2,153.2,0,0,0-23-16,201.08,201.08,0,0,0-7,22.5c-3.28,13.23-5,20.2-4,29C222.1,254.74,224.13,264.54,232.5,275.5Z" transform="translate(-95.48 -143.71)"/><path class="cls-1" d="M286.5,260a38.72,38.72,0,0,1,4-18.5c6.78-13.42,20-18.79,23-20,7.07-2.87,9.85-1.91,22.5-6.5,4.69-1.7,8.47-3.34,11-4.5a103.06,103.06,0,0,0-4,19.5c-1.22,11.48.21,16.64-.5,24s-3.67,17.86-14,30a58,58,0,0,0-42-24Z" transform="translate(-95.48 -143.71)"/><path class="cls-1" d="M226.5,282.5a58.44,58.44,0,0,0-17,39c-6.48,1.62-18.22,3.33-27.5-3-8.65-5.9-12.69-17.1-15-23.5-2.94-8.14-2.82-12.77-7.5-18.5A30.44,30.44,0,0,0,148,268c4.5-1.54,11-3.6,19-5.5,15.16-3.61,22.75-5.42,30.5-4C212.42,261.23,222,274.71,226.5,282.5Z" transform="translate(-95.48 -143.71)"/><path class="cls-1" d="M208.5,331a86.45,86.45,0,0,0-17-2.5c-9.82-.45-16.3-.75-22.5,3-5.35,3.24-8.05,8-12,15-4.06,7.18-3.78,9.76-7.5,15.5A45.07,45.07,0,0,1,138,374a57.63,57.63,0,0,1,16.5,3.5c7.72,2.89,9.85,5.63,16.5,8a45.24,45.24,0,0,0,21,2c14.95-1.89,24.84-10.82,28.5-14.5a86.36,86.36,0,0,1-10.6-28.16A85.43,85.43,0,0,1,208.5,331Z" transform="translate(-95.48 -143.71)"/><path class="cls-1" d="M338,294.5A67.4,67.4,0,0,1,348.5,340a48.47,48.47,0,0,0,13-3.5c5.38-2.31,9.27-5.16,18-12.5,11.1-9.33,11.48-10.31,15-13,5.83-4.46,15.17-9.72,30-12a133.38,133.38,0,0,1-16-8c-10.45-6.12-12.61-9.29-20-12.5-3.38-1.47-12.33-5.35-22.5-4C349.48,276.7,340,291.35,338,294.5Z" transform="translate(-95.48 -143.71)"/><path class="cls-1" d="M344.5,270.5a32.76,32.76,0,0,0,5-9.5c2.61-8,.29-11.75,3-16,1.39-2.17,3.85-4.1,16-6.5a167.12,167.12,0,0,1,25.5-3,129.6,129.6,0,0,0-9.5,14c-4.43,7.54-4.68,9.7-8,12.5-3.5,3-8.21,4-17.5,6C353.06,269.27,348.06,270,344.5,270.5Z" transform="translate(-95.48 -143.71)"/><path class="cls-1" d="M369,342.5c2.56-1.74,6.6-4.5,11.5-8,10.89-7.78,12.22-9.3,16-10a21.37,21.37,0,0,1,18.5,6c3,3.17,2.64,5.21,5.5,9.5A32.31,32.31,0,0,0,435,351.5a142.91,142.91,0,0,0-18,2c-9.19,1.63-11.39,3-16,2-6.16-1.3-7.28-4.78-14.5-8.5A42.26,42.26,0,0,0,369,342.5Z" transform="translate(-95.48 -143.71)"/><path class="cls-1" d="M349,349.5a54,54,0,0,1-4.5,12A56,56,0,0,1,326,382a55.39,55.39,0,0,0,14.5,13.5c4.51,2.88,10.65,6.81,19,7.5,4.89.41,10.93-1.06,23-4,6-1.45,9.38-2.54,14.5-2a29.48,29.48,0,0,1,11,3.5,97,97,0,0,0-5.5-19c-2-5-5.77-14.29-11.5-20.5C377.79,346.67,354.3,348.88,349,349.5Z" transform="translate(-95.48 -143.71)"/><path class="cls-1" d="M226,379a64.87,64.87,0,0,0-11,8c-3.52,3.18-9.19,8.29-12.5,15.5-4.86,10.6-2.46,21-.5,29.5a70.15,70.15,0,0,0,12.5,26.5,38.19,38.19,0,0,1,9-16c7.89-8.16,15.67-8,23.5-13.5,6-4.24,12.85-12.38,16-29.5a48.92,48.92,0,0,1-26.5-9.5A47.09,47.09,0,0,1,226,379Z" transform="translate(-95.48 -143.71)"/><path class="cls-1" d="M272.5,404.5a35.75,35.75,0,0,0-.5,13,39.05,39.05,0,0,0,8.5,18.5c5.39,6.54,8.67,6.31,16,14a67.6,67.6,0,0,1,8.5,11c1.55-3.38,4-8.62,7-15,6.72-14.11,8-16,9-19.5,1.77-6.28,2.13-16.35-6.5-31.5a97.71,97.71,0,0,1-42,9.5Z" transform="translate(-95.48 -143.71)"/><path class="cls-1" d="M322.5,394.5a43.5,43.5,0,0,1,5.5,13c2.28,9.56-.59,12.55,2,18,1.07,2.25,3.3,5.41,21,13,7.9,3.39,14.65,5.85,19.5,7.5-.53-3.86-1.43-9.4-3-16-2.33-9.81-3.5-14.71-6-17.5-5.2-5.79-11.13-3.87-23.5-9A68.06,68.06,0,0,1,322.5,394.5Z" transform="translate(-95.48 -143.71)"/><path class="cls-1" d="M194.5,392a30.19,30.19,0,0,1-9,3c-9.39,1.51-13.54-2.62-19-.5-4.74,1.84-6.65,6.91-9.5,14.5a71.9,71.9,0,0,0-4.5,26.5A26.43,26.43,0,0,1,165,428c7.51-1.84,10.67,1.46,16-1,5.73-2.64,8-9.2,10.5-16.5A56.07,56.07,0,0,0,194.5,392Z" transform="translate(-95.48 -143.71)"/><path class="cls-1" d="M177,321.5a84.12,84.12,0,0,1-12.5-9c-4.2-3.66-4.77-4.92-7.5-6-4.67-1.85-9.35-.67-16,1-5.93,1.49-6.76,2.59-11,3a28.35,28.35,0,0,1-10.5-1,150.35,150.35,0,0,0,15,12c7,4.89,10.56,7.34,14.5,7.5,5,.21,6.82-2.28,16-5A74.92,74.92,0,0,1,177,321.5Z" transform="translate(-95.48 -143.71)"/><path class="cls-1" d="M185,207a73.28,73.28,0,0,0-2.5,13c-.77,7.71-1.25,12.51,1,17.5,2.37,5.25,6.49,7.87,13,12a67.94,67.94,0,0,0,18,8c-.17-2.85-.4-7.19-.5-12.5-.14-7.34.06-10.95,0-12.5C213.76,226.65,208.41,218.16,185,207Z" transform="translate(-95.48 -143.71)"/><path class="cls-1" d="M282.5,236.5a48.42,48.42,0,0,0-3-12.5c-3.16-8.14-6.76-10.7-8-14.5-1.74-5.32.72-14.43,20-31,9.79,11,14.18,23.34,11.89,31.79a25.06,25.06,0,0,1-3.89,8.21c-3.16,4-6.06,4.43-10,8A28.74,28.74,0,0,0,282.5,236.5Z" transform="translate(-95.48 -143.71)"/><path class="cls-1" d="M266,418.5a112,112,0,0,0-11.5,11c-6.13,6.75-9.22,10.23-10,15-.93,5.64,1.32,10.37,4,16A49.58,49.58,0,0,0,257,473a113.08,113.08,0,0,0,10.5-11c5.3-6.35,8-9.6,8.5-13.5s-1-5.8-5-16.5C268.73,425.9,267,421.09,266,418.5Z" transform="translate(-95.48 -143.71)"/><path class="cls-2" d="M358.53,230a20.64,20.64,0,0,0,2.69-23c-6-12.39-19.86-12.43-20.74-21.26a9,9,0,0,1,3.84-8.36c4-2.4,9.93-.36,13.06,1.39,12.9,7.24,10.58,28.26,10.37,30A43,43,0,0,1,358.53,230Z" transform="translate(-95.48 -143.71)"/><path class="cls-2" d="M369.25,221.61A33.15,33.15,0,0,1,383.84,207c2.76-1.4,9.82-4.86,18.44-3.48,1.52.24,11.26,1.8,12.29,7,.55,2.77-1.46,6.4-4.61,7.66-6.09,2.45-11.61-5.84-21.12-6.27C384.08,211.64,377.49,213.35,369.25,221.61Z" transform="translate(-95.48 -143.71)"/><path class="cls-2" d="M378.44,204a44.46,44.46,0,0,0,7.3-23c.08-4.52.08-9.26-3.46-13.59-.37-.46-5.87-7-13.44-6.28-2.59.25-6.92,1.5-8.06,4.53-.2.54-.74,2.28.79,5.12,3.69,6.81,12,6.39,16.49,10.92C381.06,184.74,383.16,190.75,378.44,204Z" transform="translate(-95.48 -143.71)"/><path class="cls-2" d="M388.76,195.46A36.37,36.37,0,0,1,396.44,178c2.43-3,6.71-8.21,12.68-8.36.76,0,3.69-.1,5.19,1.63s.92,4.81-.2,6.73c-3.09,5.29-10.63,3.53-18.05,8.72A22.38,22.38,0,0,0,388.76,195.46Z" transform="translate(-95.48 -143.71)"/><path class="cls-2" d="M214.5,210.5c-6.77-10.95-13.34-14.1-18-15-7.72-1.49-13.93,2.48-21-2-1.14-.72-4.62-2.93-5-6.5-.49-4.67,4.68-8.28,5-8.5,7-4.73,17.69-.69,23,2.5C212.67,189.52,214.29,207.69,214.5,210.5Z" transform="translate(-95.48 -143.71)"/><path class="cls-2" d="M218.87,203.17c-1.78-2.61-9.29-14.23-5.5-27,.57-1.94,3.69-12.44,11.5-14,3.93-.79,9.48.61,11.14,4.28a7.73,7.73,0,0,1-.14,5.72c-2.4,6.53-9.56,6.55-14,11.5C219.23,186.61,216.85,192.07,218.87,203.17Z" transform="translate(-95.48 -143.71)"/><path class="cls-2" d="M204.32,177.66c-3-7.87-7.14-11.35-10.3-13.08-8.49-4.65-16.49-.09-22.26-6.12-.33-.35-4.17-4.47-3-8.69.94-3.33,4.6-5.2,7.16-5.8,9.43-2.17,18.83,9.55,20.29,11.36A38.64,38.64,0,0,1,204.32,177.66Z" transform="translate(-95.48 -143.71)"/><path class="cls-2" d="M141,280.5c-.69-1.49-5.65-11.74-17-14.5-7.19-1.75-15.28-.08-20.5,4.5-1.42,1.24-4.41,3.87-4,7s3.94,5.39,7,6c5.23,1.05,8.23-3,14-5C124.71,277,131.24,276.34,141,280.5Z" transform="translate(-95.48 -143.71)"/><path class="cls-2" d="M138,263.77c-2.87-5.77-8.72-15.09-19.5-20.5-3.86-1.94-11.91-6-18-2.5-2.23,1.28-5.29,4.18-5,7.5.27,3.12,3.36,5.09,4,5.5,6,3.83,12-.74,20,0C124.19,254.21,130.64,256.29,138,263.77Z" transform="translate(-95.48 -143.71)"/><path class="cls-2" d="M151.92,341.7a44.73,44.73,0,0,0-24.7,1.19c-4.1,1.45-11.31,4.1-15.93,11.15-1.05,1.61-6,9.17-2.79,13.95a7.81,7.81,0,0,0,7.57,3.18c5.32-1.07,6.17-8.77,10.36-15.13C129.89,350.77,136.78,344.69,151.92,341.7Z" transform="translate(-95.48 -143.71)"/><path class="cls-2" d="M416.7,283a62.44,62.44,0,0,1,6-18.8c2.77-5.48,5.78-11.22,11.65-13.11,1.26-.4,4.39-1.41,7,.28a6.51,6.51,0,0,1,2.82,5.95c-.53,3.9-5.77,5.87-9.31,7.7C429.62,267.7,422.94,272.72,416.7,283Z" transform="translate(-95.48 -143.71)"/><path class="cls-2" d="M428.89,286c2.39-4.36,10-16.92,24.45-20.69,6.17-1.62,19.44-3.16,23.46,3.63,1.8,3,2,8.24-.68,10.93-5.41,5.41-17.08-4.75-32.67-1.27A34.51,34.51,0,0,0,428.89,286Z" transform="translate(-95.48 -143.71)"/><path class="cls-2" d="M414.14,317.08c3.53-2.19,13-7.33,24-5,2.25.47,13,2.73,15,10,.55,2,.72,5.28-1,6.5-2.74,1.92-8.06-3-15.5-6.5A53.49,53.49,0,0,0,414.14,317.08Z" transform="translate(-95.48 -143.71)"/><path class="cls-2" d="M193,426.67c-9.54,8.93-13.33,17.62-15,22.83-1,3-4.26,13.3-.5,16a4.93,4.93,0,0,0,3.87.47C190,464,192.38,435.71,193,426.67Z" transform="translate(-95.48 -143.71)"/><path class="cls-2" d="M374.33,410.67c3.48,5.52,18.62,29,26.91,27.11.66-.15,3.28-.75,4.26-2.78,1.34-2.76-1.16-6.47-2.3-8.14C397.05,417.74,379.86,412.29,374.33,410.67Z" transform="translate(-95.48 -143.71)"/><path class="cls-2" d="M147,253.67c1.05-7.25-.62-11.31-2.33-13.67-3-4.13-7.81-5.46-8-9.67a4.64,4.64,0,0,1,1.33-3.7c1.66-1.35,4.25-.44,4.67-.3,4.17,1.46,5.68,6.86,6.33,9C151.43,243.38,148.36,250.82,147,253.67Z" transform="translate(-95.48 -143.71)"/><path class="cls-3" d="M275.75,267.75c-31.06,1.14-57.34,27.36-59.5,58.5C213.81,361.42,242.75,394,278.5,394c31.91,0,58.79-26.05,61.75-56.75C343.77,300.72,312.55,266.4,275.75,267.75Z" transform="translate(-95.48 -143.71)"/></g><g id="Слой_3" data-name="Слой 3"><path class="cls-2" d="M405.5,503.5c-5.42-2.59-8.46-6.56-13-12.5-5.91-7.74-5-9.27-10-15.5a49.82,49.82,0,0,0-15-13A46,46,0,0,0,346,457c-14.28,0-24.4,7.07-30,11-15.91,11.16-23.79,27-27.65,38.11q-2-29-4.35-57.11l-9,24q1,9.53,1.87,18.63A25,25,0,0,0,265.5,481a23.57,23.57,0,0,0-16.5-1c-9,2.9-15.55,11.45-17,22,1.66-2.62,6.66-9.72,15.5-12,10.41-2.68,22.48,2.25,30.4,12.72A220.48,220.48,0,0,1,283.5,542c.56,11.22.1,20.09.22,35.77-20.52-15.16-25.16-27.47-25.22-36.27,0-6.57,2.39-21.36-3.5-30a9.35,9.35,0,0,0-4.95-4c-4.44-1.36-9.25,1.69-11.5,4-6.18,6.33-3.61,17.77-2.55,22.5,5.18,23,34.42,38.93,47.73,45.15,0,4.92.15,10.49.35,17,.16,4.93.33,9,.45,11.56a144.37,144.37,0,0,0-43.47-36.05,48.71,48.71,0,0,0-5.2-16c-7.87-14.72-24.45-26.81-31-23-2.5,1.46-3.49,5.2-3,8,1.12,6.43,10.07,8.26,19.5,14a63.57,63.57,0,0,1,17.32,15.81A122.38,122.38,0,0,0,204.34,559c-2.9-.5-5.82-.89-8.74-1.18A52.15,52.15,0,0,0,185,542.5c-6.68-6.68-21.05-17.27-29.5-12.5-3.16,1.78-5.42,5.69-5,9,.85,6.56,12.1,9.86,16,11,6.27,1.84,8.34.9,14.5,2.5a44,44,0,0,1,12,5.12,127,127,0,0,0-40.74,3.51A52.09,52.09,0,0,0,136,564.5c-5.27,2-14,5.39-17.5,13.5-.67,1.58-2.41,5.67-.5,9a9,9,0,0,0,8,4c6.89-.36,9-9.51,18.51-19a55.52,55.52,0,0,1,8.45-6.93,124.74,124.74,0,0,1,30.45-3.83A114.13,114.13,0,0,0,166.1,570c-10.8,6.69-13.3,10.78-14,12-.93,1.6-6.93,12.44-1.5,19,2.73,3.3,8.08,5.19,12,3.5,4.92-2.12,5.49-9,7.5-16s6.11-16.63,15.38-27.24A119.37,119.37,0,0,1,203.66,563a117.32,117.32,0,0,1,19.62,5.17c-1-.07-2.14-.13-3.28-.14-7.13-.09-15.42-.19-22,5-7.49,5.91-11.94,18-7.5,24,1.52,2,4.51,3.93,7.5,3.5,5.68-.81,6.75-9.33,12.5-17,3.15-4.2,8.61-9.35,18.7-13,28.49,12,47,32.59,55.56,44,.32,10.2.54,19.38.74,28,.52,22.34.05,30.16,0,58.38a167.61,167.61,0,0,0-10.66-15.52h0a162.39,162.39,0,0,0-11.92-13.73c8.26-13.31,10.55-24.72,6.08-29.12-2-1.94-5.57-2.84-8-1.5-5.83,3.22-3.26,18.47-1.17,27.53-2.14-2.1-4.33-4.16-6.59-6.14-1.18-1-2.4-2-3.62-3,5.25-18.07,9.09-38,1.88-42.35-3-1.79-7.42-.7-10,1.5-6.21,5.3-4.72,19.8,3.8,37.42-4.05-3.11-8.23-6.06-12.56-8.78-3.65-9.5-11.05-13.79-15.74-12.14-3.08,1.08-5.65,5-5,8,.9,4.24,8.21,7.64,18.52,6.29a158.11,158.11,0,0,1,38.4,33.52,127.58,127.58,0,0,0-20.42-6.31c-15.57-3.4-18.8-1-20,.5a7.76,7.76,0,0,0-1,7.61c1.27,2.69,7,8.58,44,1.41a164.94,164.94,0,0,1,14,20.79V709c0,26,.3,28.17,0,41.5-.4,17.75-1.29,32.3-2,42a6.62,6.62,0,0,0,7,3,6.38,6.38,0,0,0,3.81-3.1q.63-25,.87-50.82A26.61,26.61,0,0,0,311,744c5.27-.94,9.18-3.58,13.5-6.5,8.81-6,8.2-9,15.5-13a39.45,39.45,0,0,1,16-4.5,43.39,43.39,0,0,1,13.5,1A44.88,44.88,0,0,0,358,710.5c-4.83-3.06-13.24-8.39-22-6-4.71,1.28-7.52,4.25-12.5,9.5-7.2,7.59-7.33,11.48-12,16-3.05,3-8,6.11-16.29,7.42q0-5,.06-10.08A39.14,39.14,0,0,0,306,722c4.14-2.93,13.39-9.57,14-19,.42-6.49-3.29-8.48-3-17a30.76,30.76,0,0,1,2.5-11c-11.89,7.4-14.76,13.82-15,18.5-.24,4.85,2.62,7.45,1.5,13.5-1,5.39-4.26,9-7,12a38.49,38.49,0,0,1-3.71,3.56Q295.47,660.28,293,594q-.33-8.38-.7-16.7c6.92-5.91,13.63-12.15,20-18.64,13.56-4.71,22.3-3.32,28.05-.6,5.59,2.65,9.82,7.23,13.5,5.5,3.36-1.58,4.81-7.75,3-12-2.92-6.86-13.71-7.33-17.5-7.5a34.21,34.21,0,0,0-17,3.85q4.45-5,8.68-10.15a97,97,0,0,1,20.52-1.26c15.31.7,25.28,4.85,29,0,1.91-2.49,1.32-6.27.22-8.49-3.52-7.09-16.36-6.15-18.22-6s-6,.63-17,6c-3.16,1.54-7.15,3.62-11.7,6.29q7.8-9.79,14.79-20.17l-.14-.1a25.82,25.82,0,0,0,4-5c1.16-1.86,6.61-10.67,3-17.5-1.29-2.44-4.16-5.44-7-5-2.64.41-4.1,3.63-4.5,4.5-2.73,6,1.32,10.24.5,18a21.36,21.36,0,0,1-1.95,6.84,309.51,309.51,0,0,1-21,26.89c.95-2.69,1.94-5.76,2.87-9.17,2.75-10.05,4.09-15.18,2-20.5-2-5-7.08-10.83-12-10a7,7,0,0,0-5.5,5c-.87,4.12,3.84,7.74,6.5,11,3.59,4.41,6.45,11.94,4.38,25.63q-3.11,3.51-6.31,6.92c-6.79,7.17-14,14.06-21.48,20.57q-1.49-32.66-3.6-64.26c4.44-10,14.35-26.19,33.53-31.94,2.66-.8,24-6.89,37,3.5,8.29,6.64,6.8,13.72,18.5,22.5a41.65,41.65,0,0,0,11.71,6.44c13.91,4.75,27.13-.52,32.29-2.94A27.18,27.18,0,0,1,405.5,503.5Z" transform="translate(-95.48 -143.71)"/><path class="cls-2" d="M344.24,576.61c-5.41-1.44-19.17-2.3-25.26,6.12a16,16,0,0,0-2.83,8.09,85.3,85.3,0,0,1,38.91,41,110.85,110.85,0,0,0-27.27-27.7,109.6,109.6,0,0,0-16.23-9.47c-2.62,1.08-11.87,5.25-14.84,14.37-3.64,11.16,3.89,24.32,13.14,30.18,13.55,8.59,25.75-1.15,47.24,7.39a61.37,61.37,0,0,1,14.95,8.58C372.09,613.29,361.69,581.27,344.24,576.61Z" transform="translate(-95.48 -143.71)"/></g></svg>