<?xml version="1.0" encoding="UTF-8"?>
<!DOCTYPE svg PUBLIC "-//W3C//DTD SVG 1.1//EN" "http://www.w3.org/Graphics/SVG/1.1/DTD/svg11.dtd">
<svg version="1.1" xmlns="http://www.w3.org/2000/svg" xmlns:xlink="http://www.w3.org/1999/xlink" x="0" y="0" width="582" height="450" viewBox="0, 0, 582, 450">
  <g id="Layer_1">
    <path d="M279.184,119.133 L287.498,117.314 C287.498,117.314 289.94,131.086 290.147,131.086 C290.354,131.086 273.617,133.394 273.617,133.394 L279.184,119.133 z M383.966,169.016 L383.966,210.45 L362.583,210.45 L363.781,175.313 L383.966,169.016 z M360.087,165.823 L355.686,128.485 L296.569,133.164 L296.569,113.677 C296.569,113.677 316.91,113.674 318.079,114.065 C319.249,114.456 323.762,100.447 323.762,100.447 L321.738,68.076 L335.732,66.122 C335.732,66.122 341.167,90.665 341.946,93.003 C342.725,95.341 363.232,94.933 363.232,94.933 C363.232,94.933 362.848,144.387 362.588,146.337 C362.327,148.287 372.717,146.473 372.717,146.473 L375.054,119.253 L384.406,119.253 L382.068,159.493 L360.087,165.823 z M433.049,168.238 C432.787,169.016 408.053,165.899 408.053,165.899 C408.053,165.899 409.354,121.99 409.354,121.212 C409.354,120.433 415.858,119.133 416.069,119.133 C416.282,119.133 416.132,154.729 417.388,155.506 C418.644,156.287 432.267,154.206 432.267,154.206 C432.267,154.206 436.264,134.203 436.782,135.242 C437.301,136.282 466.296,133.164 466.296,133.164 L466.296,145.115 L445.375,145.633 C445.375,145.633 433.308,167.456 433.049,168.238 M576.273,283.751 L580.292,283.743 L580.292,284.555 C580.292,287.798 579.31,291.1 579.128,294.368 C579.03,296.118 578.354,297.859 578.209,299.588 L574.925,299.323 C575.072,297.622 575.454,295.915 575.551,294.193 C575.746,290.677 576.29,287.194 576.273,283.751 M7.892,312.564 C7.928,312.588 8.072,312.646 8.248,312.618 L8.027,311.074 C8.607,310.996 9.102,311.459 9.85,312.413 C12.375,315.626 25.107,336.404 24.449,338.052 L23.499,337.67 L22.957,337.77 C22.642,336.003 9.777,313.779 7.892,312.564 M9.73,344.81 C10.045,344.497 10.615,344.169 11.56,344.394 C16.713,345.61 31.059,364.509 31.675,366.353 L30.198,366.85 C29.528,365.075 15.494,346.836 11.172,345.904 C11.042,345.875 10.882,345.865 10.831,345.914 L9.73,344.81 z M36.02,341.888 C33.145,343.937 30.358,346.102 28.439,347.913 C27.474,348.813 26.754,349.634 26.268,350.238 C25.848,350.891 25.609,351.262 25.609,351.262 C25.609,351.262 25.765,350.839 26.039,350.102 C26.386,349.397 26.929,348.4 27.698,347.282 C29.222,345.033 31.528,342.248 33.937,339.568 C36.344,336.886 38.845,334.294 40.749,332.375 C42.643,330.46 43.966,329.193 43.966,329.193 L47.783,334.126 C47.783,334.126 46.298,335.022 44.065,336.461 C41.839,337.889 38.891,339.838 36.02,341.888 M47.533,370.418 C46.305,371.728 45.118,373.077 44.062,374.387 C43.563,375.055 43.034,375.689 42.608,376.323 C42.197,376.965 41.733,377.552 41.433,378.143 C41.136,378.732 40.759,379.256 40.597,379.767 C40.416,380.27 40.189,380.711 40.112,381.091 C39.978,381.874 39.899,382.322 39.899,382.322 C39.899,382.322 39.88,381.859 39.847,381.052 C39.841,380.642 39.971,380.168 40.046,379.596 C40.108,379.014 40.362,378.433 40.544,377.748 C40.726,377.059 41.059,376.386 41.341,375.628 C41.64,374.875 42.03,374.133 42.396,373.332 C43.18,371.768 44.085,370.138 45.044,368.542 C46.965,365.351 49.071,362.284 50.701,360.015 C51.532,358.887 52.224,357.947 52.707,357.292 C53.213,356.632 53.5,356.257 53.5,356.257 L57.993,360.581 C57.993,360.581 57.655,360.869 57.065,361.365 C56.478,361.885 55.637,362.628 54.628,363.518 C52.627,365.323 50.002,367.797 47.533,370.418 M58.405,248.793 C53.876,249.799 49.388,251.026 46.193,252.37 C45.394,252.707 44.681,253.052 44.062,253.386 C43.451,253.73 42.94,254.067 42.544,254.378 C42.168,254.705 41.86,254.972 41.714,255.199 C41.547,255.418 41.457,255.537 41.457,255.537 C41.457,255.537 41.527,255.405 41.655,255.164 C41.767,254.902 42.027,254.588 42.359,254.185 C42.711,253.796 43.174,253.364 43.741,252.906 C44.315,252.461 44.986,251.986 45.74,251.505 C48.762,249.594 53.085,247.598 57.472,245.817 C61.863,244.033 66.326,242.455 69.693,241.323 C73.061,240.19 75.354,239.497 75.354,239.497 L76.672,245.591 C76.672,245.591 74.397,245.88 70.958,246.429 C67.519,246.979 62.935,247.781 58.405,248.793 M68.765,320.462 C68.774,319.877 68.785,319.294 68.793,318.719 L68.797,318.286 L68.803,318.068 L68.808,317.914 L68.815,317.851 L68.833,317.732 L68.961,316.772 C69.12,315.501 69.313,314.255 69.599,313.045 C70.641,308.193 72.392,303.901 74.422,300.281 C78.518,293.022 83.352,288.325 86.741,285.235 C88.462,283.701 89.869,282.563 90.832,281.815 C91.8,281.066 92.316,280.67 92.316,280.67 C92.316,280.67 91.901,281.172 91.125,282.118 C90.353,283.067 89.258,284.465 87.951,286.31 C85.386,289.987 81.904,295.508 79.834,302.586 C78.805,306.107 78.208,309.993 78.283,313.998 C78.27,314.998 78.352,316.006 78.461,317.019 L78.53,317.778 L78.538,317.872 L78.542,317.919 C78.544,318.026 78.544,317.831 78.545,317.87 L78.557,318.088 L78.582,318.521 C78.614,319.096 78.647,319.678 78.681,320.261 C78.874,322.291 79.141,324.485 79.583,326.66 C80.46,331.003 81.89,335.358 83.942,339.417 C85.966,343.492 88.644,347.254 91.783,350.381 C94.919,353.508 98.551,355.98 102.346,357.472 C104.242,358.219 106.17,358.775 108.095,359.047 C109.06,359.171 110.012,359.543 110.965,359.565 C111.439,359.597 111.915,359.911 112.388,359.911 L112.77,359.911 L112.999,359.538 L113.909,359.233 C115.554,359.086 117.477,358.643 119.133,358.093 C120.831,357.543 122.436,356.794 123.933,355.943 C126.93,354.243 129.477,352.02 131.555,349.698 C133.643,347.375 135.254,344.914 136.5,342.636 C137.754,340.361 138.623,338.234 139.258,336.461 C139.904,334.688 140.268,333.236 140.535,332.261 C140.77,331.272 140.891,330.746 140.891,330.746 L158.98,335.513 C158.98,335.513 158.752,336.234 158.327,337.585 C157.858,338.92 157.191,340.889 156.105,343.309 C155.03,345.729 153.58,348.621 151.546,351.74 C149.522,354.857 146.935,358.224 143.57,361.449 C140.218,364.668 136.084,367.765 131.127,370.098 C128.656,371.261 125.984,372.225 123.169,372.903 C120.317,373.581 117.499,373.974 114.288,374.004 L113.372,373.992 L112.716,373.988 L112.152,373.956 C111.4,373.9 110.646,373.885 109.892,373.79 C108.379,373.636 106.875,373.378 105.376,373.06 C102.388,372.397 99.466,371.361 96.71,370.022 C91.182,367.342 86.365,363.443 82.486,358.959 C78.602,354.463 75.582,349.402 73.439,344.165 C71.267,338.937 69.936,333.546 69.273,328.3 C68.944,325.677 68.8,323.103 68.765,320.462 M133.866,281.842 C111.044,279.275 88.223,276.71 88.223,276.71 C88.223,276.71 111.17,277.722 134.118,278.736 C145.591,279.275 157.063,279.849 165.679,280.359 C166.679,280.419 167.634,280.475 168.549,280.532 C171.595,280.72 174.172,280.896 176.131,281.062 C176.777,281.118 177.354,281.17 177.852,281.217 C178.38,281.277 178.708,281.288 179.383,281.41 C180.644,281.65 180.723,281.714 180.782,281.719 L178.571,287.545 L177.96,287.407 C177.712,287.365 177.403,287.307 177.042,287.244 C176.574,287.169 176.037,287.083 175.436,286.988 C174.159,286.794 172.572,286.568 170.743,286.323 C169.081,286.097 167.22,285.856 165.192,285.595 C156.67,284.51 145.268,283.159 133.866,281.842 M198.01,272.161 L181.032,200.786 L187.155,199.602 L198.01,272.161 z M202.541,309.788 L202.533,309.733 L202.552,309.747 C202.605,309.776 203.117,310.077 203.917,310.664 C204.771,311.275 205.927,312.19 207.198,313.368 C209.759,315.706 212.72,319.131 215.25,322.85 C217.781,326.569 219.887,330.573 221.127,333.804 C221.757,335.412 222.186,336.818 222.444,337.832 C222.711,338.838 222.803,339.452 222.803,339.452 C222.803,339.452 222.264,339.14 221.421,338.522 C220.569,337.908 219.415,336.993 218.145,335.815 C215.584,333.472 212.621,330.048 210.083,326.336 C207.547,322.625 205.439,318.622 204.2,315.388 C203.571,313.779 203.144,312.374 202.889,311.359 C202.655,310.473 202.563,309.919 202.541,309.788 M218.62,360.237 C218.667,359.562 218.791,358.704 219.136,357.816 C219.451,356.905 219.921,355.935 220.538,354.956 C221.156,353.979 221.908,353.004 222.762,352.03 C223.629,351.08 224.584,350.122 225.627,349.224 C226.671,348.324 227.779,347.435 228.955,346.627 C230.115,345.787 231.343,345.033 232.578,344.294 C237.549,341.386 242.901,339.361 247.08,338.324 C249.172,337.807 250.958,337.498 252.226,337.344 C253.492,337.183 254.244,337.177 254.244,337.177 C254.244,337.177 253.694,337.686 252.708,338.483 C251.723,339.284 250.3,340.367 248.577,341.594 C245.128,344.046 240.413,346.923 235.727,349.671 C234.56,350.355 233.389,351.035 232.239,351.705 C231.101,352.378 229.982,353.039 228.9,353.679 C226.752,354.968 224.792,356.203 223.226,357.373 C222.45,357.96 221.734,358.513 221.17,359.063 C220.605,359.617 220.144,360.136 219.803,360.614 C219.655,360.855 219.514,361.081 219.372,361.285 C219.256,361.487 219.196,361.674 219.125,361.828 C218.983,362.147 218.907,362.315 218.907,362.315 C218.907,362.315 218.859,362.137 218.768,361.803 C218.665,361.455 218.58,360.93 218.62,360.237 M223.03,396.051 C223.43,395.391 223.924,394.711 224.48,393.976 C226.712,391.037 230.21,387.75 234.099,385.018 C235.079,384.342 236.064,383.677 237.075,383.079 C238.066,382.459 239.089,381.909 240.083,381.394 C242.076,380.365 244.043,379.561 245.779,378.987 C246.668,378.714 247.474,378.487 248.215,378.314 C248.979,378.143 249.65,378.052 250.185,377.97 C251.262,377.886 251.904,377.906 251.904,377.906 C251.904,377.906 251.471,378.386 250.662,379.105 C249.915,379.875 248.894,380.899 247.589,382.096 C246.301,383.309 244.771,384.642 243.089,386.015 C241.41,387.388 239.566,388.771 237.69,390.115 C235.796,391.43 233.876,392.705 232.014,393.821 C230.163,394.951 228.372,395.925 226.813,396.737 C225.226,397.529 223.905,398.186 222.978,398.649 C222.5,398.891 222.144,399.073 221.905,399.233 C221.643,399.386 221.506,399.468 221.506,399.468 C221.506,399.468 221.529,399.319 221.609,399.03 C221.69,398.744 221.81,398.275 222.071,397.803 C222.309,397.294 222.618,396.68 223.03,396.051 M238.639,427.135 C238.654,426.89 238.606,426.47 238.716,426.013 C238.792,425.535 238.906,424.943 239.138,424.316 C239.34,423.657 239.669,423.002 240.041,422.262 C240.437,421.56 240.897,420.802 241.452,420.078 C241.993,419.328 242.627,418.621 243.306,417.903 C243.997,417.209 244.726,416.5 245.528,415.872 C246.305,415.2 247.167,414.643 248.007,414.044 C249.737,412.943 251.552,411.983 253.331,411.279 C255.102,410.55 256.824,410.066 258.355,409.759 C259.889,409.443 261.18,409.334 262.111,409.324 C263.037,409.293 263.595,409.338 263.595,409.338 C263.595,409.338 263.256,409.784 262.612,410.45 C261.965,411.12 261.024,412.031 259.91,413.001 C258.789,413.977 257.438,415.039 255.996,416.103 C255.263,416.625 254.528,417.178 253.754,417.694 C252.985,418.22 252.21,418.747 251.422,419.258 C248.292,421.314 245.139,423.203 242.719,424.689 C242.138,425.07 241.546,425.409 241.077,425.743 C240.578,426.069 240.14,426.362 239.792,426.628 C239.428,426.89 239.161,427.119 238.965,427.279 C238.762,427.443 238.654,427.529 238.654,427.529 C238.654,427.529 238.647,427.391 238.639,427.135 M258.321,273.723 C255.411,274.628 252.502,275.491 249.777,276.275 C247.052,277.061 244.512,277.771 242.357,278.431 C240.197,279.083 238.437,279.712 237.273,280.317 C236.724,280.636 236.218,280.883 235.977,281.138 C235.69,281.383 235.536,281.514 235.536,281.514 C235.536,281.514 235.571,281.324 235.675,280.945 C235.722,280.747 235.804,280.517 235.939,280.267 C236.067,280.017 236.205,279.688 236.428,279.409 C237.239,278.157 238.743,276.664 240.711,275.215 C244.663,272.298 250.479,269.647 256.456,267.777 C259.449,266.846 262.481,266.089 265.361,265.536 C268.238,264.976 270.959,264.62 273.31,264.427 C275.667,264.247 277.651,264.209 279.052,264.244 C280.45,264.271 281.264,264.368 281.264,264.368 C281.264,264.368 280.566,264.798 279.334,265.447 C278.102,266.1 276.329,266.964 274.19,267.915 C269.913,269.815 264.127,271.895 258.321,273.723 M277.422,248.698 C271.774,249.626 266.175,250.425 262.096,251.363 C261.078,251.599 260.137,251.831 259.333,252.097 C258.526,252.367 257.833,252.637 257.264,252.906 C256.728,253.201 256.255,253.43 255.998,253.659 C255.701,253.864 255.54,253.975 255.54,253.975 C255.54,253.975 255.598,253.791 255.71,253.446 C255.82,253.084 256.038,252.583 256.43,251.991 C256.824,251.419 257.354,250.712 258.078,250.066 C258.786,249.386 259.648,248.696 260.639,248.055 C262.623,246.756 265.096,245.593 267.803,244.669 C270.51,243.743 273.453,243.043 276.407,242.549 C282.33,241.575 288.304,241.506 292.779,241.962 C295.02,242.192 296.883,242.508 298.185,242.798 C299.487,243.078 300.228,243.323 300.228,243.323 C300.228,243.323 299.506,243.617 298.247,244.03 C296.991,244.451 295.197,244.985 293.054,245.548 C290.91,246.103 288.414,246.667 285.749,247.197 C284.417,247.463 283.04,247.723 281.645,247.968 C280.253,248.209 278.839,248.454 277.422,248.698 M300.172,373.512 C300.275,373.542 300.371,373.593 300.477,373.614 C306.514,374.742 314.046,362.587 317.3,346.47 C320.551,330.353 318.294,316.376 312.258,315.249 C310.643,314.946 308.923,315.622 307.204,317.039 C311.474,306.79 316.779,300.508 321.558,301.238 C329.515,302.448 332.992,322.608 329.328,346.27 C325.661,369.93 316.243,388.135 308.285,386.923 C304.423,386.336 301.618,381.27 300.172,373.512 M316.615,406.783 C314.705,406.489 312.914,405.764 311.246,404.659 C324.457,399.01 336.74,377.614 340.903,350.738 C345.574,320.579 338.4,293.985 324.694,287.77 C328.257,285.446 331.908,284.406 335.483,284.951 C350.522,287.242 358.491,316.367 353.279,350.008 C348.07,383.653 331.654,409.069 316.615,406.783 M374.015,278.786 L414.486,274.238 L414.604,280.475 L374.015,278.786 z M382.328,311.133 C382.328,311.133 382.957,311.154 384.056,311.193 C384.602,311.23 385.271,311.18 386.027,311.17 C386.788,311.162 387.641,311.052 388.559,310.956 C389.014,310.881 389.487,310.801 389.978,310.717 C390.454,310.602 390.947,310.478 391.454,310.355 C391.949,310.201 392.446,310.015 392.952,309.838 C393.433,309.597 393.949,309.417 394.413,309.125 C396.338,308.072 397.943,306.409 398.887,304.384 C399.869,302.386 400.256,300.092 400.38,297.92 C400.506,295.742 400.357,293.653 400.182,291.847 C400.001,290.039 399.787,288.505 399.657,287.377 C399.541,286.226 399.476,285.569 399.476,285.569 L405.712,285.489 C405.712,285.489 405.678,286.086 405.62,287.132 C405.576,288.198 405.55,289.796 405.442,291.753 C405.327,293.711 405.136,296.034 404.601,298.517 C404.064,300.983 403.188,303.668 401.565,305.983 C400.758,307.128 399.803,308.19 398.705,309.018 C397.6,309.833 396.432,310.504 395.231,310.92 C394.646,311.166 394.034,311.285 393.463,311.462 C392.874,311.574 392.303,311.688 391.748,311.77 C391.19,311.819 390.647,311.866 390.123,311.913 C389.603,311.918 389.1,311.925 388.614,311.93 C387.653,311.88 386.776,311.856 386.01,311.745 C385.241,311.636 384.572,311.582 384.03,311.459 C382.946,311.253 382.328,311.133 382.328,311.133 M416.163,269.563 L375.574,267.874 L416.044,263.329 L416.163,269.563 z M425.476,253.708 C429.454,254.514 434.094,255.291 439.462,255.956 C437.879,262.42 436.657,269.157 435.851,276.115 L434.466,275.953 L425.476,253.708 z M436.287,294.75 C436.287,294.75 438.089,295.999 440.554,298.074 C441.795,299.103 443.198,300.348 444.655,301.726 C446.119,303.098 447.638,304.605 449.105,306.162 C450.575,307.715 451.989,309.323 453.273,310.872 C454.563,312.415 455.713,313.91 456.644,315.238 C457.586,316.557 458.303,317.718 458.763,318.562 C459.002,318.983 459.146,319.335 459.246,319.584 C459.354,319.854 459.321,319.968 459.328,319.975 C459.328,319.983 459.277,319.819 459.1,319.666 C458.929,319.498 458.635,319.26 458.285,318.951 C457.566,318.342 456.526,317.495 455.319,316.432 C454.103,315.381 452.717,314.127 451.272,312.739 C449.82,311.359 448.306,309.855 446.841,308.301 C445.372,306.75 443.951,305.152 442.661,303.613 C441.362,302.083 440.198,300.607 439.247,299.296 C437.314,296.706 436.287,294.75 436.287,294.75 M437.846,324.369 C437.846,324.369 439.491,325.442 441.726,327.236 C442.854,328.127 444.127,329.206 445.445,330.408 C446.771,331.605 448.145,332.921 449.469,334.287 C450.797,335.653 452.069,337.072 453.222,338.445 C454.379,339.811 455.409,341.139 456.234,342.329 C457.073,343.51 457.704,344.553 458.105,345.32 C458.313,345.699 458.433,346.018 458.516,346.248 C458.603,346.495 458.562,346.597 458.568,346.601 C458.568,346.612 458.528,346.459 458.367,346.327 C458.216,346.178 457.944,345.975 457.626,345.709 C456.973,345.184 456.021,344.454 454.925,343.539 C453.815,342.633 452.557,341.544 451.246,340.337 C449.93,339.135 448.556,337.822 447.232,336.459 C445.909,335.096 444.63,333.685 443.473,332.321 C442.311,330.961 441.271,329.645 440.431,328.472 C438.715,326.15 437.846,324.369 437.846,324.369 M448.758,353.986 C448.758,353.986 450.561,355.236 453.023,357.311 C454.267,358.34 455.67,359.584 457.125,360.961 C458.591,362.336 460.107,363.842 461.576,365.398 C463.045,366.951 464.461,368.56 465.745,370.109 C467.033,371.652 468.184,373.146 469.114,374.475 C470.056,375.794 470.774,376.956 471.234,377.799 C471.472,378.22 471.618,378.571 471.718,378.821 C471.824,379.09 471.79,379.205 471.798,379.211 C471.798,379.219 471.749,379.056 471.57,378.903 C471.401,378.735 471.105,378.497 470.755,378.188 C470.038,377.58 468.996,376.73 467.791,375.669 C466.573,374.619 465.188,373.364 463.743,371.976 C462.291,370.595 460.777,369.091 459.312,367.538 C457.844,365.984 456.422,364.389 455.131,362.849 C453.833,361.318 452.67,359.843 451.718,358.533 C449.786,355.943 448.758,353.986 448.758,353.986 M475.065,329.964 C473.653,330.995 472.215,331.986 470.797,332.834 C469.393,333.698 468.008,334.424 466.796,335.018 C465.573,335.612 464.516,336.065 463.76,336.399 C463.374,336.573 463.088,336.703 462.879,336.814 C462.659,336.924 462.544,336.98 462.544,336.98 C462.544,336.98 462.548,336.857 462.58,336.62 C462.62,336.394 462.655,335.994 462.813,335.598 C463.068,334.734 463.582,333.582 464.345,332.365 C465.848,329.88 468.393,327.149 471.348,324.962 C472.093,324.423 472.847,323.896 473.626,323.426 C474.389,322.939 475.192,322.526 475.966,322.13 C477.532,321.358 479.086,320.779 480.485,320.419 C481.201,320.245 481.822,320.099 482.448,320.017 C483.06,319.931 483.596,319.891 484.021,319.886 C484.878,319.901 485.395,319.975 485.395,319.975 C485.395,319.975 485.085,320.398 484.497,321.025 C484.231,321.338 483.907,321.717 483.539,322.153 C483.183,322.548 482.753,323.05 482.292,323.528 C481.365,324.514 480.267,325.611 479.039,326.71 C477.815,327.817 476.456,328.911 475.065,329.964 M475.274,360.302 C475.291,359.891 475.317,359.356 475.518,358.852 C475.694,358.333 475.907,357.689 476.231,357.081 C476.575,356.512 476.98,355.901 477.449,355.267 C477.929,354.664 478.479,354.137 479.069,353.57 C479.66,352.984 480.299,352.504 480.979,352.046 C481.646,351.585 482.357,351.104 483.068,350.736 C483.798,350.374 484.522,350.008 485.262,349.699 C485.99,349.364 486.738,349.125 487.47,348.907 C488.93,348.477 490.34,348.16 491.563,348.063 C492.793,347.944 493.865,347.95 494.635,348.002 C495.401,348.042 495.868,348.133 495.868,348.133 C495.868,348.133 495.619,348.537 495.133,349.13 C494.651,349.734 493.935,350.528 493.018,351.354 C492.083,352.172 491.042,353.074 489.846,353.882 C489.253,354.293 488.623,354.683 487.997,355.085 C487.374,355.49 486.712,355.846 486.054,356.208 C485.363,356.527 484.773,356.925 484.105,357.227 C483.462,357.556 482.78,357.821 482.203,358.125 C481.612,358.424 480.961,358.66 480.406,358.912 C479.874,359.176 479.333,359.412 478.802,359.622 C478.305,359.843 477.895,360.089 477.45,360.29 C476.991,360.485 476.649,360.7 476.359,360.9 C475.759,361.292 475.315,361.553 475.315,361.553 C475.315,361.553 475.235,361.121 475.274,360.302 M490.309,381.211 C490.335,380.981 490.363,380.731 490.395,380.454 C490.441,380.186 490.546,379.939 490.632,379.648 C490.825,379.081 491.061,378.411 491.391,377.735 C491.744,377.109 492.156,376.437 492.628,375.737 C493.09,375.011 493.682,374.428 494.28,373.759 C494.888,373.106 495.535,372.438 496.266,371.899 C496.972,371.316 497.731,370.776 498.484,370.227 C499.275,369.754 500.069,369.292 500.877,368.879 C501.681,368.458 502.473,368.06 503.309,367.776 C504.945,367.184 506.522,366.677 507.877,366.49 C509.237,366.287 510.419,366.224 511.266,366.229 C512.111,366.221 512.625,366.284 512.625,366.284 C512.625,366.284 512.338,366.714 511.783,367.35 C511.234,367.995 510.42,368.854 509.384,369.754 C508.337,370.661 507.245,371.692 505.952,372.612 C505.307,373.06 504.668,373.586 503.987,374.056 C503.318,374.549 502.603,374.984 501.901,375.442 C501.217,375.905 500.536,376.378 499.827,376.79 C499.112,377.203 498.448,377.627 497.791,378.032 C497.149,378.448 496.41,378.767 495.847,379.158 C495.247,379.523 494.648,379.858 494.069,380.162 C493.523,380.491 493.023,380.794 492.58,381.062 C492.084,381.327 491.692,381.575 491.393,381.814 C490.751,382.275 490.281,382.58 490.281,382.58 C490.281,382.58 490.227,382.107 490.309,381.211 M513.609,317.084 C515.192,320.507 517.246,322.586 519.597,322.7 C525.731,323.001 531.552,309.941 532.596,293.532 C533.642,277.125 529.519,263.578 523.383,263.277 C520.592,263.141 517.87,265.793 515.629,270.245 C518.618,259.323 523.122,252.238 527.78,252.498 C535.116,252.912 540.051,271.369 538.8,293.73 C537.551,316.09 530.589,333.888 523.252,333.478 C518.965,333.237 515.502,326.828 513.609,317.084 M527.503,349.724 C539.011,343.274 548.292,322.249 549.713,296.847 C551.306,268.346 542.449,244.23 529.447,239.679 C532.48,237.194 535.708,235.898 539.004,236.084 C552.873,236.861 562.674,263.259 560.897,295.053 C559.119,326.848 546.435,351.993 532.566,351.215 C530.808,351.117 529.115,350.604 527.503,349.724 M528.683,199.419 C528.683,199.419 528.037,199.709 526.912,200.116 C525.787,200.53 524.186,201.051 522.27,201.598 C520.355,202.136 518.123,202.677 515.742,203.174 C514.553,203.425 513.325,203.668 512.078,203.891 C510.833,204.109 509.568,204.332 508.307,204.552 C505.695,204.982 503.103,205.366 500.695,205.738 C501.894,203.419 503.1,201.177 504.302,199.022 C505.293,198.795 506.286,198.57 507.292,198.402 C512.609,197.528 517.978,197.521 521.995,198.014 C524.006,198.261 525.679,198.588 526.85,198.883 C528.017,199.169 528.683,199.419 528.683,199.419 M486.768,149.55 C485.488,149.44 484.225,149.338 482.992,149.251 L483.1,147.374 C484.775,147.476 486.063,148.431 486.768,149.55 M467.28,257.842 C469.618,257.889 472.012,257.92 474.505,257.92 C475.829,257.92 477.208,257.901 478.576,257.889 L478.349,258.004 C477.281,258.543 476.214,259.086 475.146,259.581 C474.114,260.12 473.036,260.572 472.038,261.055 C471.057,261.552 470.021,261.951 469.126,262.406 C468.226,262.849 467.285,263.205 466.523,263.619 C465.749,264.024 464.921,264.319 464.327,264.689 C463.729,265.066 463.065,265.318 462.649,265.625 C461.799,266.223 461.188,266.606 461.188,266.606 C461.188,266.606 461.293,265.99 461.688,264.84 C461.887,264.263 462.247,263.682 462.674,262.969 C463.083,262.22 463.656,261.555 464.292,260.776 C464.921,259.978 465.691,259.294 466.506,258.509 C466.749,258.274 467.019,258.059 467.28,257.842 M452.444,277.873 C451.285,276.376 450.089,274.753 448.955,273.088 C447.818,271.425 446.74,269.724 445.775,268.098 C444.801,266.477 443.947,264.927 443.263,263.566 C441.866,260.865 441.168,258.908 441.166,258.908 C441.166,258.908 442.738,260.275 444.747,262.566 C445.766,263.7 446.896,265.062 448.052,266.564 C449.215,268.056 450.404,269.681 451.539,271.346 C452.676,273.009 453.749,274.712 454.717,276.34 C455.688,277.962 456.543,279.51 457.228,280.872 C458.624,283.573 459.328,285.53 459.328,285.53 C459.328,285.53 457.76,284.159 455.751,281.869 C454.733,280.732 453.602,279.369 452.444,277.873 M487.488,283.488 C487.488,283.488 487.009,283.973 486.14,284.717 C485.273,285.472 484.017,286.482 482.492,287.617 C479.439,289.89 475.249,292.51 471.066,294.964 C468.988,296.17 466.909,297.377 464.957,298.507 C463.028,299.632 461.267,300.701 459.846,301.706 C459.142,302.213 458.488,302.688 457.969,303.16 C457.452,303.638 457.022,304.086 456.699,304.503 C456.561,304.716 456.425,304.915 456.293,305.092 C456.181,305.273 456.119,305.439 456.05,305.572 C455.911,305.859 455.837,306.01 455.837,306.01 C455.837,306.01 455.777,305.859 455.693,305.549 C455.589,305.234 455.495,304.761 455.518,304.128 C455.545,303.514 455.637,302.725 455.936,301.914 C456.204,301.08 456.613,300.189 457.158,299.292 C457.7,298.395 458.37,297.503 459.13,296.61 C459.899,295.744 460.752,294.869 461.687,294.049 C462.62,293.231 463.609,292.422 464.666,291.689 C465.705,290.929 466.811,290.25 467.92,289.584 C472.385,286.971 477.216,285.203 480.996,284.347 C482.888,283.92 484.506,283.685 485.656,283.583 C486.806,283.47 487.488,283.488 487.488,283.488 M494.937,247.36 C494.937,247.36 494.454,247.828 493.584,248.54 C492.717,249.262 491.454,250.217 489.922,251.291 C488.148,252.525 485.981,253.856 483.646,255.174 L483.653,254.824 C483.693,253.055 483.917,251.093 484.272,249.004 C485.785,248.562 487.232,248.212 488.544,247.968 C490.41,247.623 492.004,247.455 493.136,247.389 C494.269,247.32 494.937,247.36 494.937,247.36 M494.961,165.119 C497.064,165.667 499.869,167.421 502.625,169.46 C494.123,182.54 467.523,227.091 470.943,251.659 C466.771,251.618 462.828,251.503 459.127,251.329 C461.896,238.06 471.485,199.426 494.961,165.119 M477.648,148.932 C472.543,148.682 468.141,148.615 465.013,148.615 C458.704,148.615 450.493,148.898 448.113,149.69 L447.217,149.988 L446.639,150.734 C444.796,153.106 438.369,161.492 430.965,172.544 C424.818,171.353 412.013,169.074 406.53,169.604 C406.722,158.015 406.871,144.912 406.978,130.046 C407.042,120.834 407.082,111.621 407.102,102.628 C412.9,97.458 418.825,92.392 423.258,88.872 C429.873,89.221 438.956,88.961 441.045,87.64 C443.398,86.151 442.474,68.623 441.696,58.115 L470.423,66.828 C470.994,73.729 472.421,90.876 473.898,108.029 C475.009,120.92 475.924,131.197 476.617,138.574 C477.011,142.767 477.354,146.262 477.624,148.712 L477.648,148.932 M407.016,47.595 L414.058,49.732 C414.784,61.283 415.86,81.982 416.032,86.692 C413.068,89.124 409.967,91.784 407.115,94.28 C407.131,77.058 407.084,60.949 407.016,47.595 M409.68,242.642 C401.664,225.347 435.877,174.925 450.861,155.465 C452.116,155.29 454.73,155.071 458.679,154.946 C451.309,169.628 421.002,230.349 416.597,245.098 C413.038,244.038 410.778,243.131 409.68,242.642 M509.979,219.296 C508.885,219.918 507.308,220.736 505.404,221.628 C501.594,223.412 496.433,225.325 491.239,226.961 C491.136,226.993 491.036,227.02 490.935,227.052 C491.894,224.636 492.915,222.201 493.986,219.766 C495.129,219.495 496.267,219.241 497.373,219.038 C499.958,218.56 502.406,218.275 504.524,218.141 C506.646,218.017 508.435,218.029 509.697,218.095 C510.958,218.156 511.692,218.27 511.692,218.27 C511.692,218.27 511.075,218.682 509.979,219.296 M396.065,129.961 C395.214,249.913 390.979,252.766 389.169,253.972 C384.783,256.896 377.136,257.656 370.353,257.656 C363.275,257.656 357.143,256.825 356.651,256.755 C355.798,256.636 355.204,255.849 355.322,254.994 C355.441,254.143 356.231,253.532 357.081,253.659 C357.303,253.69 379.451,256.676 387.347,251.427 C393.158,244.757 393.745,104.509 392.722,11.744 C392.711,10.884 393.401,10.324 394.261,10.324 L394.28,10.324 C395.134,10.324 395.828,10.856 395.838,11.709 C395.844,12.298 396.482,71.067 396.065,129.961 M386.594,213.829 C385.889,213.735 384.281,213.656 379.301,213.656 C375.262,213.656 370.072,213.708 365.241,213.754 C362.241,213.785 359.387,213.813 357.03,213.827 C357.204,182.203 354.268,140.391 353.522,136.671 C353.522,136.671 314.44,137.116 267.627,137.852 L280.734,57.692 C301.338,53.473 361.581,47.387 388.349,48.088 C388.714,112 388.197,175.779 386.594,213.829 M381.249,31.414 C380.967,36.367 380.281,41.68 379.546,42.482 C377.957,43.422 358.144,44.171 345.57,44.426 C345.253,42.415 344.479,36.203 346.467,33.319 C346.821,32.806 349.378,31.129 367.384,31.129 C373.559,31.129 379.227,31.332 381.249,31.414 M278.953,42.385 C281.565,41.052 299.166,36.923 302.835,36.923 L302.901,36.923 C303.366,39.456 303.369,47.62 302.33,48.315 C301.579,48.788 295.536,49.77 290.681,50.617 C283.703,51.836 279.564,52.643 277.646,53.28 C276.952,48.947 276.509,43.634 278.953,42.385 M269.736,66.982 L264.464,99.225 L256.042,97.097 L257.091,68.19 L269.736,66.982 z M224.994,317.818 C225.072,317.479 225.204,316.979 225.482,316.393 C225.748,315.804 226.101,315.075 226.621,314.35 C227.118,313.592 227.731,312.781 228.465,311.97 C229.923,310.335 231.823,308.66 233.985,307.106 C236.145,305.545 238.569,304.106 241.063,302.838 C246.065,300.32 251.369,298.564 255.498,297.713 C257.563,297.288 259.323,297.047 260.572,296.943 C261.819,296.827 262.556,296.842 262.556,296.842 C262.556,296.842 262.007,297.335 261.02,298.094 C260.035,298.856 258.607,299.885 256.876,301.033 C253.41,303.334 248.663,305.981 243.873,308.402 C242.672,308.996 241.474,309.589 240.291,310.176 C239.119,310.765 237.941,311.309 236.82,311.854 C235.696,312.39 234.609,312.913 233.579,313.404 C232.544,313.895 231.574,314.367 230.688,314.819 C229.798,315.267 228.971,315.678 228.266,316.079 C227.556,316.485 226.937,316.846 226.44,317.179 C225.953,317.519 225.537,317.786 225.298,318.008 C225.028,318.219 224.883,318.331 224.883,318.331 C224.883,318.331 224.922,318.152 224.994,317.818 M250.901,264.457 C250.921,264.734 250.882,264.997 250.879,265.154 C250.87,265.318 250.864,265.407 250.864,265.407 C250.864,265.407 250.778,265.392 250.615,265.363 C250.461,265.328 250.198,265.303 249.932,265.218 C249.369,265.075 248.626,264.822 247.825,264.448 C246.224,263.695 244.518,262.359 243.215,260.707 C242.31,259.556 241.616,258.25 241.155,256.978 C240.949,256.421 240.778,255.873 240.675,255.342 C240.501,254.474 240.432,253.69 240.43,253.109 C240.41,252.832 240.452,252.57 240.455,252.41 C240.467,252.246 240.472,252.157 240.472,252.157 C240.472,252.157 240.558,252.172 240.721,252.201 C240.877,252.236 241.141,252.258 241.406,252.344 C241.971,252.486 242.716,252.738 243.517,253.112 C243.873,253.278 244.234,253.483 244.593,253.706 C245.857,254.482 247.111,255.568 248.121,256.857 C249.416,258.516 250.307,260.494 250.657,262.228 C250.828,263.094 250.898,263.875 250.901,264.457 M345.73,218.42 C345.211,218.532 323.169,208.96 323.169,208.96 L323.169,181.488 L345.886,181.271 C345.886,181.271 346.251,218.305 345.73,218.42 M356.742,236.622 C356.991,231.177 357.631,223.92 358.003,220.066 C360.17,220.05 362.684,220.037 365.303,220.011 C370.112,219.964 375.28,219.934 379.301,219.934 C381.044,219.934 382.324,219.988 383.261,220.002 C383.269,225.368 383.096,231.05 382.77,235.411 C382.535,238.55 382.223,241.224 381.841,242.514 C382.223,241.224 382.535,238.381 382.77,235.241 L356.742,236.622 z M356.64,240.91 C356.642,241.316 356.649,241.688 356.663,242.019 C356.649,241.688 356.642,241.316 356.64,240.91 M216.992,274.815 L216.997,274.757 L217.02,274.772 C217.076,274.81 217.497,275.089 218.124,275.614 C218.812,276.176 219.726,277.009 220.693,278.073 C222.659,280.188 224.785,283.257 226.451,286.565 C228.115,289.869 229.318,293.403 229.859,296.241 C230.141,297.651 230.272,298.88 230.315,299.766 C230.372,300.645 230.338,301.179 230.338,301.179 C230.338,301.179 229.89,300.887 229.215,300.32 C228.53,299.761 227.619,298.925 226.647,297.861 C224.689,295.742 222.556,292.673 220.886,289.374 C219.214,286.073 218.007,282.539 217.467,279.701 C217.19,278.288 217.059,277.059 217.017,276.172 C216.97,275.42 216.987,274.944 216.992,274.815 M202.533,149.531 L343.395,149.348 L345.436,169.522 L198.626,157.968 L202.533,149.531 z M195.37,146.812 C195.37,146.812 195.073,148.646 194.554,151.855 C194.022,155.058 193.246,159.627 192.197,165.107 C191.66,167.849 191.071,170.816 190.324,173.968 C189.923,175.559 189.549,177.147 188.928,178.919 C188.733,179.399 188.686,179.728 188.314,180.392 L188.071,180.831 L187.942,181.048 L187.878,181.154 L187.848,181.207 C187.714,181.358 188.094,180.947 187.543,181.56 C187.43,181.641 187.494,181.627 187.051,181.923 C186.88,182.031 186.7,182.127 186.517,182.207 C186.329,182.287 186.324,182.277 186.22,182.314 C184.934,182.69 184.112,182.706 183.162,182.791 C179.525,183.01 175.958,182.911 172.289,182.816 C168.638,182.708 164.938,182.545 161.244,182.363 C146.492,181.535 131.739,180.707 120.677,180.086 C115.146,179.814 110.537,179.648 107.311,179.646 C105.695,179.64 104.426,179.68 103.565,179.752 C102.705,179.817 102.254,179.928 102.254,179.928 C102.254,179.928 102.698,179.794 103.558,179.682 C104.417,179.565 105.686,179.459 107.301,179.378 C110.535,179.21 115.156,179.132 120.699,179.113 C131.776,179.148 146.544,179.197 161.316,179.246 C165.001,179.234 168.688,179.201 172.302,179.118 C175.9,179.023 179.496,178.922 182.759,178.548 C183.318,178.482 183.946,178.383 184.377,178.277 C184.445,178.129 184.549,177.735 184.632,177.476 C185.044,176.083 185.349,174.475 185.638,172.972 C186.194,169.913 186.622,166.967 187.009,164.247 C187.753,158.798 188.283,154.229 188.644,151.035 C188.989,147.838 189.186,146.013 189.186,146.013 L195.37,146.812 z M102.254,199.05 L175.52,199.05 C176.811,199.05 177.858,200.293 177.858,201.584 C177.858,202.875 176.811,204.117 175.52,204.117 L102.254,204.117 C100.963,204.117 99.916,202.875 99.916,201.584 C99.916,200.293 100.963,199.05 102.254,199.05 M187.991,262.381 C189.28,262.381 190.329,263.623 190.329,264.915 C190.329,266.207 189.28,267.448 187.991,267.448 L122.518,267.448 C121.228,267.448 120.18,266.207 120.18,264.915 C120.18,263.623 121.228,262.381 122.518,262.381 L187.991,262.381 z M187.212,252.881 C187.212,254.173 186.166,254.782 184.873,254.782 L117.842,254.782 C116.551,254.782 115.504,254.173 115.504,252.881 C115.504,251.59 116.551,250.981 117.842,250.981 L184.873,250.981 C186.166,250.981 187.212,251.59 187.212,252.881 M183.315,238.316 C184.604,238.316 185.651,238.924 185.651,240.215 C185.651,241.506 184.604,242.115 183.315,242.115 L114.724,242.115 C113.434,242.115 112.388,241.506 112.388,240.215 C112.388,238.924 113.434,238.316 114.724,238.316 L183.315,238.316 z M178.638,216.783 L106.93,216.783 C105.639,216.783 104.592,215.541 104.592,214.25 C104.592,212.959 105.639,211.716 106.93,211.716 L178.638,211.716 C179.929,211.716 180.975,212.959 180.975,214.25 C180.975,215.541 179.929,216.783 178.638,216.783 M182.534,226.283 C182.534,227.574 181.488,228.182 180.196,228.182 L110.048,228.182 C108.756,228.182 107.709,227.574 107.709,226.283 C107.709,224.991 108.756,224.382 110.048,224.382 L180.196,224.382 C181.488,224.382 182.534,224.991 182.534,226.283 M39.263,272.851 C42.993,270.674 46.929,268.905 49.925,267.677 C51.422,267.059 52.688,266.584 53.586,266.257 C54.496,265.936 55.018,265.753 55.018,265.753 L56.474,271.815 C56.474,271.815 55.979,271.891 55.115,272.024 C54.239,272.169 52.979,272.39 51.472,272.705 C48.46,273.328 44.445,274.295 40.579,275.678 C39.618,276.035 38.635,276.367 37.72,276.779 C36.785,277.166 35.873,277.563 35.029,278.015 C34.152,278.424 33.356,278.894 32.613,279.365 C31.833,279.796 31.192,280.314 30.583,280.788 C29.937,281.227 29.464,281.742 29.025,282.194 C28.802,282.419 28.596,282.63 28.404,282.825 C28.223,283.03 28.105,283.251 27.973,283.433 C27.461,284.199 27.168,284.633 27.168,284.633 C27.168,284.633 27.376,284.146 27.741,283.297 C27.84,283.089 27.923,282.836 28.068,282.593 C28.223,282.36 28.393,282.108 28.574,281.836 C28.935,281.292 29.337,280.655 29.904,280.084 C30.443,279.481 31.023,278.807 31.733,278.216 C32.414,277.581 33.157,276.934 33.976,276.346 C34.773,275.711 35.633,275.122 36.524,274.544 C37.4,273.932 38.338,273.408 39.263,272.851 M26.115,312.23 C26.641,311.574 27.276,310.983 27.897,310.314 C29.172,309.026 30.603,307.729 32.063,306.462 C34.999,303.96 38.083,301.644 40.435,299.957 C41.611,299.111 42.608,298.425 43.31,297.945 C44.024,297.467 44.431,297.196 44.431,297.196 L47.316,302.725 C47.316,302.725 46.893,302.896 46.148,303.195 C45.403,303.505 44.329,303.952 43.051,304.521 C40.499,305.649 37.114,307.235 33.842,309.026 C32.213,309.929 30.607,310.874 29.153,311.836 C28.448,312.338 27.713,312.781 27.102,313.283 C26.487,313.781 25.85,314.216 25.366,314.706 C24.873,315.185 24.356,315.594 24.026,316.044 C23.682,316.485 23.303,316.838 23.121,317.198 C22.72,317.917 22.492,318.331 22.492,318.331 C22.492,318.331 22.633,317.872 22.881,317.076 C22.996,316.66 23.293,316.248 23.556,315.713 C23.81,315.164 24.231,314.662 24.643,314.055 C25.044,313.437 25.582,312.876 26.115,312.23 M24.449,302.594 L23.003,303.172 C22.54,302.019 14.515,283.891 12.979,281.203 C12.904,281.072 12.841,280.965 12.797,280.911 L13.317,280.374 L13.318,280.374 L12.603,280.059 L13.345,279.582 C13.456,279.582 13.554,279.589 13.662,279.647 C14.199,279.918 15.023,281.499 19.286,290.945 C21.75,296.405 24.243,302.075 24.449,302.594 M2.714,319.698 C2.714,321.437 2.761,323.202 2.852,324.938 L5.213,324.811 C5.778,335.469 8.091,345.686 11.884,355.109 L9.689,355.992 C11.683,360.94 14.102,365.737 16.881,370.247 L18.877,369.017 C24.389,377.955 31.393,385.788 39.542,392.13 L38.09,393.996 C42.324,397.289 46.866,400.183 51.586,402.595 L52.654,400.504 C61.238,404.89 70.675,407.8 80.73,408.877 C81.298,408.938 81.862,408.962 82.429,409.012 L82.225,411.37 C84.595,411.572 86.99,411.676 89.343,411.676 C92.296,411.676 95.291,411.516 98.239,411.197 L97.987,408.869 C108.446,407.736 118.432,404.546 127.572,399.691 L128.682,401.776 C133.349,399.294 137.852,396.354 142.059,393.029 L140.604,391.188 C148.646,384.834 155.649,377.008 161.256,368.054 L163.257,369.307 C166.065,364.821 168.527,360.049 170.57,355.127 L168.406,354.229 C169.694,351.127 170.818,347.924 171.787,344.644 C182.142,346.498 191.622,348.156 198.844,349.347 C198.872,349.808 198.909,350.262 198.94,350.721 C199.875,351.246 201.082,351.966 202.436,352.905 C205.458,354.963 209.115,358.062 212.396,361.539 C215.671,365.015 218.576,368.864 220.404,372.08 C221.327,373.678 221.995,375.102 222.388,376.159 C222.602,376.676 222.705,377.115 222.789,377.43 C222.878,377.787 222.791,377.893 222.803,377.906 C222.811,377.921 222.705,377.715 222.477,377.604 C222.234,377.449 221.879,377.223 221.425,376.934 C220.507,376.367 219.209,375.548 217.734,374.49 C214.769,372.389 211.137,369.283 207.864,365.818 C204.588,362.36 201.67,358.541 199.799,355.376 C199.6,355.045 199.416,354.726 199.239,354.409 C199.891,361.143 201.072,367.684 202.715,373.982 L199.678,374.776 C201.032,379.969 202.728,385.072 204.72,389.949 L207.627,388.761 C209.281,392.811 211.144,396.71 213.205,400.443 L211.184,402.847 L218.442,408.949 C220.001,411.226 221.631,413.433 223.347,415.544 L220.917,417.52 C224.354,421.745 228.108,425.647 232.081,429.118 L234.151,426.745 C241.617,433.276 250.023,438.417 259.179,441.803 C259.474,441.319 259.79,440.826 260.159,440.344 C260.698,439.591 261.332,438.886 262.012,438.167 C262.702,437.474 263.432,436.761 264.233,436.138 C265.012,435.465 265.872,434.909 266.712,434.31 C268.444,433.209 270.257,432.247 272.036,431.542 C273.81,430.817 275.53,430.332 277.06,430.023 C278.595,429.706 279.888,429.599 280.817,429.586 C281.744,429.555 282.301,429.602 282.301,429.602 C282.301,429.602 281.961,430.049 281.318,430.715 C280.671,431.383 279.731,432.294 278.617,433.266 C277.495,434.241 276.145,435.301 274.703,436.368 C273.97,436.89 273.235,437.445 272.459,437.959 C271.691,438.486 270.917,439.01 270.131,439.525 C268.002,440.922 265.884,442.229 263.974,443.396 C263.07,443.946 262.202,444.477 261.426,444.956 C261.104,445.169 260.782,445.363 260.476,445.556 C265.393,447.196 270.482,448.365 275.623,449 L276.01,445.878 C276.414,445.926 276.816,446.001 277.225,446.044 C287.371,447.129 297.333,446.088 306.831,443.277 L307.724,446.298 C312.813,444.792 317.852,442.756 322.697,440.25 L321.266,437.478 C330.267,432.828 338.61,426.476 346.017,418.769 L348.283,420.946 C351.928,417.156 355.37,413.009 358.52,408.624 L355.971,406.795 C361.848,398.604 366.808,389.392 370.608,379.373 L373.536,380.483 C375.406,375.55 377.002,370.427 378.277,365.25 L375.231,364.5 C376.644,358.766 377.714,352.845 378.364,346.755 C378.838,342.336 379.062,337.965 379.1,333.638 L382.244,333.663 L382.249,332.48 C382.249,332.194 382.238,331.91 382.236,331.625 L437.505,326.219 C437.929,328.441 438.396,330.634 438.909,332.793 L435.86,333.519 C437.114,338.782 438.652,343.919 440.427,348.791 L443.363,347.722 C447.161,358.15 452.094,367.423 457.936,375.153 L455.441,377.038 C458.841,381.536 462.549,385.533 466.464,388.921 L468.518,386.549 C476.783,393.705 486.205,398.207 496.376,399.349 L496.022,402.476 C496.928,402.577 497.838,402.655 498.753,402.706 C499.672,402.758 500.581,402.781 501.49,402.781 C505.17,402.781 508.886,402.36 512.533,401.526 L511.833,398.459 C521.451,396.262 530.57,391.077 538.738,383.492 L540.867,385.784 C544.646,382.272 548.266,378.233 551.62,373.777 L549.11,371.887 C554.972,364.102 560.079,354.936 564.192,344.706 L567.101,345.877 C569.04,341.052 570.765,335.983 572.228,330.811 L569.209,329.955 C571.928,320.343 573.834,310.07 574.756,299.323 C574.901,297.622 575.028,295.915 575.126,294.193 C575.322,290.677 575.399,287.194 575.384,283.751 C575.332,272.949 574.248,262.549 572.278,252.781 L575.352,252.159 C574.286,246.878 572.943,241.689 571.361,236.741 L568.381,237.696 C565.009,227.159 560.515,217.672 555.115,209.593 L557.728,207.85 C554.613,203.189 551.188,198.966 547.549,195.297 L545.314,197.514 C537.522,189.667 528.549,184.27 518.774,182.044 L519.47,178.987 C519.041,178.89 518.602,178.836 518.168,178.75 C518.284,178.641 518.413,178.513 518.525,178.418 C520.245,176.975 522.764,176.241 526.008,176.241 C533.025,176.241 541.258,179.607 544.997,181.32 L543.061,192.288 L554.371,198.19 L555.481,194.627 C557.498,188.155 560.424,176.662 557.379,172.401 C553.669,167.207 519.771,154.445 501.578,151.394 C496.696,150.575 491.787,149.997 487.131,149.584 C486.289,142.823 483.786,114.216 481.506,87.177 C485.582,86.11 487.482,62.991 483.654,58.343 C476.38,49.509 410.128,21.975 407.401,23.794 C407.219,23.916 407.039,24.113 406.866,24.348 C406.803,16.369 406.751,11.886 406.749,11.721 C406.693,6.591 402.517,2.724 397.398,2.724 L397.292,2.724 C392.128,2.724 387.987,6.759 388.044,11.924 C388.087,15.865 388.127,19.675 388.164,23.647 C319.16,20.483 276.457,36.94 276.457,36.94 C276.457,36.94 273.737,44.164 273.621,55.222 L271.709,54.863 L270.777,60.5 L245.566,62.995 L245.862,66.055 L242.551,66.055 C242.551,66.055 240.212,95.615 241.382,96.783 C241.857,97.258 243.633,97.669 245.862,97.849 L245.101,100.819 L263.456,105.426 L258.125,138.017 C190.965,139.108 112.636,140.749 110.566,142.523 C105.372,154.993 99.917,170.968 99.917,170.968 L97.188,195.52 L104.275,228.339 C102.9,228.121 101.52,227.931 100.121,227.782 C98.416,227.599 96.727,227.486 95.033,227.413 L95.151,225.06 C93.938,225.005 92.696,224.976 91.552,224.981 C87.423,224.981 83.31,225.295 79.227,225.917 L79.982,228.245 C70.41,229.698 60.978,232.862 53.378,237.455 L53.378,244.648 L50.846,244.648 L50.846,238.308 C50.846,238.408 50.484,238.519 50.31,238.62 L49.255,236.587 C44.685,239.255 40.227,242.373 36.156,245.851 L37.643,247.634 C35.535,249.437 33.488,251.345 31.542,253.349 L32.288,253.243 C32.288,253.243 34.633,269.837 34.958,271.979 L33.415,272.212 C33.126,270.315 31.25,257.092 30.823,254.079 C25.874,259.292 21.501,265.144 17.823,271.53 L15.784,270.351 C13.144,274.938 10.856,279.794 8.989,284.787 L11.2,285.615 C8.425,293.041 6.501,300.951 5.612,309.252 L3.288,309.002 C2.907,312.556 2.714,316.156 2.714,319.698" fill="#1A1919"/>
    <path d="M549.713,296.847 C551.306,268.346 542.449,244.23 529.447,239.68 C532.48,237.195 535.708,235.897 539.004,236.084 C552.873,236.86 562.674,263.259 560.897,295.053 C559.119,326.848 546.435,351.993 532.566,351.215 C530.808,351.117 529.115,350.604 527.503,349.724 C539.011,343.274 548.292,322.249 549.713,296.847" fill="#FFFFFE"/>
    <path d="M519.597,322.7 C525.731,323.001 531.552,309.941 532.596,293.532 C533.642,277.125 529.519,263.578 523.383,263.277 C520.592,263.141 517.87,265.793 515.629,270.245 C518.618,259.323 523.122,252.238 527.78,252.498 C535.116,252.912 540.051,271.369 538.8,293.73 C537.551,316.09 530.589,333.888 523.252,333.478 C518.965,333.237 515.502,326.828 513.609,317.084 C515.192,320.507 517.246,322.586 519.597,322.7" fill="#FFFFFE"/>
    <path d="M379.546,42.483 C377.957,43.419 358.146,44.171 345.57,44.426 C345.253,42.415 344.479,36.204 346.467,33.318 C346.821,32.804 349.378,31.128 367.384,31.128 C373.559,31.128 379.227,31.332 381.249,31.412 C380.967,36.367 380.281,41.68 379.546,42.483" fill="#FFFFFE"/>
    <path d="M302.33,48.319 C301.579,48.791 295.536,49.759 290.682,50.606 C283.704,51.825 279.563,52.542 277.646,53.179 C276.953,48.845 276.508,43.657 278.954,42.407 C281.565,41.074 299.166,36.923 302.835,36.923 L302.901,36.923 C303.366,39.456 303.369,47.624 302.33,48.319" fill="#FFFFFE"/>
    <path d="M389.169,253.972 C384.783,256.896 377.136,257.659 370.353,257.659 C363.275,257.659 357.143,256.831 356.651,256.761 C355.798,256.642 355.204,255.856 355.322,255.001 C355.441,254.151 356.231,253.546 357.081,253.673 C357.303,253.706 379.451,256.706 387.347,251.454 C393.158,244.785 393.745,104.509 392.722,11.744 C392.711,10.884 393.401,10.324 394.261,10.324 L394.28,10.324 C395.134,10.324 395.828,10.856 395.838,11.709 C395.844,12.298 396.482,71.176 396.065,130.069 C395.214,250.019 390.979,252.768 389.169,253.972" fill="#FFFFFE"/>
    <path d="M192.197,165.107 C191.661,167.85 191.068,170.815 190.324,173.968 C189.925,175.559 189.551,177.147 188.928,178.918 C188.733,179.398 188.686,179.728 188.315,180.392 L188.071,180.831 L187.942,181.048 L187.878,181.154 L187.845,181.207 C187.714,181.359 188.095,180.947 187.543,181.56 C187.43,181.64 187.494,181.627 187.051,181.923 C186.88,182.03 186.7,182.127 186.517,182.207 C186.33,182.287 186.324,182.276 186.219,182.314 C184.934,182.69 184.112,182.706 183.162,182.791 C179.525,183.01 175.958,182.91 172.291,182.816 C168.636,182.708 164.937,182.547 161.244,182.363 C146.492,181.534 131.74,180.707 120.677,180.086 C115.146,179.814 110.537,179.648 107.309,179.646 C105.695,179.64 104.428,179.68 103.565,179.752 C102.705,179.815 102.253,179.928 102.253,179.928 C102.253,179.928 102.698,179.792 103.558,179.682 C104.417,179.565 105.687,179.46 107.301,179.378 C110.532,179.209 115.156,179.13 120.7,179.113 C131.776,179.148 146.545,179.197 161.317,179.246 C165.001,179.234 168.688,179.201 172.302,179.118 C175.901,179.022 179.496,178.92 182.759,178.547 C183.319,178.482 183.946,178.383 184.378,178.277 C184.445,178.128 184.549,177.735 184.629,177.476 C185.044,176.083 185.349,174.475 185.64,172.972 C186.195,169.913 186.623,166.965 187.006,164.246 C187.755,158.798 188.283,154.229 188.644,151.035 C188.99,147.838 189.186,146.013 189.186,146.013 L195.37,146.812 C195.37,146.812 195.074,148.646 194.554,151.855 C194.02,155.057 193.246,159.627 192.197,165.107" fill="#FFFFFE"/>
    <path d="M181.032,200.787 L187.155,199.602 L198.01,272.161 L181.032,200.787" fill="#FFFFFE"/>
    <path d="M316.615,406.783 C314.705,406.489 312.914,405.764 311.246,404.659 C324.457,399.01 336.74,377.614 340.903,350.738 C345.574,320.579 338.4,293.985 324.694,287.77 C328.257,285.446 331.908,284.406 335.483,284.951 C350.524,287.242 358.492,316.367 353.279,350.008 C348.07,383.653 331.654,409.069 316.615,406.783" fill="#FFFFFE"/>
    <path d="M317.3,346.47 C320.551,330.353 318.294,316.376 312.258,315.249 C310.643,314.946 308.923,315.623 307.204,317.039 C311.474,306.79 316.779,300.508 321.558,301.235 C329.515,302.448 332.992,322.608 329.328,346.27 C325.661,369.93 316.243,388.136 308.285,386.923 C304.423,386.336 301.618,381.27 300.173,373.512 C300.275,373.542 300.371,373.593 300.477,373.614 C306.514,374.742 314.046,362.587 317.3,346.47" fill="#FFFFFE"/>
    <path d="M255.498,297.713 C257.563,297.288 259.323,297.047 260.572,296.943 C261.819,296.827 262.556,296.842 262.556,296.842 C262.556,296.842 262.009,297.335 261.02,298.094 C260.035,298.856 258.607,299.885 256.876,301.033 C253.41,303.333 248.663,305.981 243.873,308.402 C242.672,308.996 241.472,309.589 240.291,310.176 C239.119,310.765 237.943,311.309 236.82,311.854 C235.696,312.39 234.609,312.913 233.577,313.404 C232.544,313.895 231.573,314.367 230.688,314.819 C229.798,315.267 228.974,315.678 228.266,316.079 C227.556,316.485 226.937,316.844 226.442,317.179 C225.953,317.519 225.54,317.786 225.298,318.008 C225.028,318.219 224.883,318.331 224.883,318.331 C224.883,318.331 224.921,318.152 224.994,317.818 C225.072,317.478 225.204,316.979 225.482,316.393 C225.748,315.804 226.101,315.075 226.621,314.35 C227.118,313.592 227.731,312.78 228.465,311.97 C229.926,310.335 231.823,308.66 233.985,307.106 C236.147,305.545 238.569,304.106 241.063,302.838 C246.064,300.32 251.369,298.564 255.498,297.713" fill="#FFFFFE"/>
    <path d="M265.361,265.536 C268.238,264.976 270.959,264.62 273.31,264.427 C275.667,264.247 277.651,264.209 279.052,264.243 C280.45,264.271 281.264,264.368 281.264,264.368 C281.264,264.368 280.566,264.798 279.334,265.447 C278.102,266.1 276.329,266.964 274.19,267.915 C269.913,269.815 264.127,271.894 258.321,273.723 C255.414,274.628 252.502,275.491 249.776,276.275 C247.052,277.061 244.512,277.771 242.357,278.431 C240.197,279.083 238.437,279.712 237.273,280.317 C236.724,280.636 236.218,280.883 235.977,281.138 C235.69,281.383 235.536,281.514 235.536,281.514 C235.536,281.514 235.571,281.324 235.675,280.945 C235.722,280.747 235.804,280.517 235.939,280.267 C236.067,280.017 236.205,279.688 236.427,279.409 C237.239,278.157 238.743,276.664 240.711,275.215 C244.663,272.298 250.479,269.647 256.454,267.777 C259.449,266.846 262.484,266.088 265.361,265.536" fill="#FFFFFE"/>
    <path d="M276.407,242.548 C282.33,241.576 288.304,241.505 292.779,241.964 C295.02,242.192 296.883,242.508 298.185,242.798 C299.487,243.078 300.228,243.323 300.228,243.323 C300.228,243.323 299.506,243.617 298.247,244.03 C296.991,244.451 295.197,244.985 293.054,245.548 C290.91,246.103 288.413,246.667 285.749,247.197 C284.416,247.463 283.04,247.723 281.645,247.968 C280.253,248.209 278.839,248.454 277.423,248.698 C271.774,249.626 266.175,250.425 262.096,251.362 C261.077,251.599 260.137,251.831 259.333,252.097 C258.526,252.367 257.833,252.637 257.267,252.906 C256.728,253.201 256.256,253.43 256,253.659 C255.701,253.864 255.54,253.975 255.54,253.975 C255.54,253.975 255.597,253.79 255.71,253.446 C255.82,253.084 256.038,252.583 256.431,251.991 C256.823,251.419 257.352,250.712 258.078,250.066 C258.786,249.386 259.649,248.696 260.64,248.055 C262.623,246.756 265.096,245.593 267.802,244.669 C270.51,243.743 273.452,243.043 276.407,242.548" fill="#FFFFFE"/>
    <path d="M220.538,354.956 C221.154,353.979 221.909,353.004 222.762,352.03 C223.627,351.08 224.583,350.122 225.629,349.224 C226.672,348.324 227.779,347.436 228.956,346.627 C230.116,345.787 231.345,345.033 232.578,344.294 C237.55,341.386 242.902,339.361 247.081,338.324 C249.172,337.807 250.958,337.498 252.228,337.344 C253.492,337.183 254.241,337.176 254.241,337.176 C254.241,337.176 253.694,337.686 252.708,338.483 C251.724,339.284 250.3,340.367 248.579,341.594 C245.128,344.046 240.413,346.923 235.729,349.671 C234.557,350.355 233.389,351.035 232.239,351.705 C231.101,352.378 229.982,353.039 228.902,353.679 C226.75,354.968 224.792,356.203 223.226,357.373 C222.45,357.96 221.734,358.513 221.17,359.063 C220.606,359.617 220.144,360.136 219.803,360.614 C219.657,360.855 219.511,361.081 219.374,361.285 C219.257,361.487 219.194,361.674 219.125,361.828 C218.983,362.147 218.907,362.315 218.907,362.315 C218.907,362.315 218.859,362.137 218.769,361.803 C218.665,361.455 218.58,360.93 218.62,360.237 C218.667,359.562 218.791,358.704 219.137,357.816 C219.451,356.905 219.921,355.935 220.538,354.956" fill="#FFFFFE"/>
    <path d="M224.48,393.976 C226.712,391.037 230.21,387.75 234.101,385.018 C235.079,384.342 236.065,383.677 237.075,383.078 C238.067,382.458 239.089,381.909 240.083,381.394 C242.077,380.365 244.042,379.561 245.778,378.987 C246.669,378.714 247.473,378.486 248.215,378.314 C248.979,378.143 249.65,378.052 250.186,377.97 C251.263,377.886 251.904,377.905 251.904,377.905 C251.904,377.905 251.471,378.386 250.663,379.105 C249.915,379.875 248.893,380.899 247.588,382.096 C246.303,383.309 244.771,384.642 243.089,386.015 C241.41,387.388 239.565,388.771 237.691,390.115 C235.796,391.43 233.876,392.705 232.014,393.821 C230.163,394.951 228.372,395.925 226.813,396.737 C225.227,397.529 223.905,398.186 222.977,398.649 C222.501,398.891 222.143,399.073 221.905,399.233 C221.645,399.385 221.505,399.468 221.505,399.468 C221.505,399.468 221.531,399.319 221.608,399.03 C221.691,398.744 221.812,398.275 222.071,397.802 C222.309,397.294 222.618,396.68 223.028,396.051 C223.43,395.391 223.924,394.711 224.48,393.976" fill="#FFFFFE"/>
    <path d="M239.138,424.316 C239.34,423.657 239.669,423.002 240.041,422.262 C240.437,421.56 240.9,420.802 241.452,420.078 C241.992,419.328 242.625,418.621 243.306,417.904 C243.997,417.209 244.726,416.499 245.528,415.872 C246.305,415.2 247.167,414.643 248.007,414.044 C249.737,412.943 251.551,411.983 253.331,411.279 C255.102,410.55 256.824,410.066 258.354,409.759 C259.888,409.443 261.18,409.334 262.111,409.324 C263.037,409.293 263.595,409.338 263.595,409.338 C263.595,409.338 263.256,409.784 262.612,410.45 C261.965,411.12 261.024,412.031 259.909,413.001 C258.791,413.977 257.438,415.039 255.996,416.103 C255.263,416.625 254.528,417.178 253.754,417.694 C252.985,418.221 252.21,418.748 251.422,419.258 C248.294,421.314 245.137,423.203 242.719,424.689 C242.138,425.07 241.546,425.409 241.075,425.743 C240.581,426.069 240.14,426.362 239.794,426.628 C239.428,426.89 239.163,427.119 238.965,427.279 C238.762,427.443 238.654,427.529 238.654,427.529 C238.654,427.529 238.646,427.391 238.639,427.135 C238.654,426.89 238.606,426.47 238.716,426.013 C238.795,425.535 238.906,424.941 239.138,424.316" fill="#FFFFFE"/>
    <path d="M262.012,438.167 C262.704,437.474 263.433,436.761 264.234,436.138 C265.011,435.465 265.872,434.909 266.714,434.31 C268.444,433.209 270.257,432.247 272.037,431.542 C273.81,430.817 275.53,430.332 277.06,430.023 C278.595,429.706 279.888,429.599 280.818,429.586 C281.744,429.555 282.302,429.602 282.302,429.602 C282.302,429.602 281.962,430.049 281.318,430.715 C280.67,431.383 279.729,432.294 278.617,433.266 C277.495,434.241 276.145,435.301 274.703,436.368 C273.97,436.89 273.233,437.445 272.46,437.959 C271.692,438.486 270.916,439.01 270.13,439.525 C268.001,440.922 265.884,442.229 263.974,443.396 C263.071,443.945 262.202,444.477 261.426,444.956 C261.104,445.169 260.782,445.363 260.474,445.556 C260.229,445.71 259.991,445.861 259.784,446.008 C259.285,446.334 258.848,446.625 258.499,446.895 C258.135,447.157 257.868,447.382 257.673,447.545 C257.469,447.706 257.359,447.793 257.359,447.793 C257.359,447.793 257.354,447.657 257.343,447.402 C257.359,447.157 257.313,446.737 257.423,446.276 C257.5,445.799 257.613,445.206 257.845,444.578 C258.046,443.923 258.375,443.265 258.749,442.528 C258.88,442.294 259.03,442.047 259.179,441.803 C259.475,441.319 259.79,440.826 260.158,440.344 C260.698,439.591 261.332,438.886 262.012,438.167" fill="#FFFFFE"/>
    <path d="M212.395,361.539 C215.672,365.015 218.576,368.864 220.404,372.08 C221.328,373.678 221.995,375.102 222.388,376.159 C222.604,376.676 222.705,377.115 222.789,377.43 C222.878,377.787 222.791,377.893 222.803,377.906 C222.811,377.921 222.705,377.715 222.476,377.604 C222.234,377.45 221.878,377.223 221.426,376.934 C220.505,376.367 219.209,375.549 217.734,374.49 C214.769,372.389 211.138,369.283 207.864,365.818 C204.588,362.36 201.67,358.541 199.799,355.376 C199.599,355.045 199.417,354.726 199.237,354.409 C198.577,353.234 198.065,352.19 197.718,351.386 C197.271,350.377 197.083,349.747 197.083,349.747 C197.083,349.747 197.805,350.085 198.94,350.721 C199.873,351.246 201.081,351.966 202.436,352.905 C205.457,354.963 209.115,358.062 212.395,361.539" fill="#FFFFFE"/>
    <path d="M207.198,313.368 C209.759,315.706 212.72,319.131 215.25,322.85 C217.781,326.568 219.887,330.573 221.127,333.804 C221.757,335.412 222.186,336.818 222.444,337.832 C222.711,338.838 222.803,339.452 222.803,339.452 C222.803,339.452 222.264,339.14 221.421,338.522 C220.569,337.908 219.415,336.993 218.145,335.815 C215.584,333.472 212.621,330.048 210.083,326.336 C207.547,322.625 205.439,318.622 204.2,315.388 C203.571,313.779 203.144,312.374 202.889,311.359 C202.655,310.473 202.563,309.919 202.541,309.788 L202.533,309.733 L202.552,309.747 C202.605,309.776 203.117,310.077 203.917,310.664 C204.771,311.275 205.927,312.19 207.198,313.368" fill="#FFFFFE"/>
    <path d="M220.694,278.073 C222.659,280.188 224.785,283.257 226.451,286.564 C228.115,289.87 229.32,293.404 229.859,296.241 C230.141,297.651 230.272,298.88 230.317,299.766 C230.374,300.645 230.338,301.179 230.338,301.179 C230.338,301.179 229.89,300.887 229.215,300.32 C228.53,299.761 227.619,298.925 226.649,297.861 C224.686,295.742 222.556,292.673 220.884,289.374 C219.215,286.073 218.007,282.539 217.468,279.701 C217.188,278.288 217.059,277.059 217.017,276.172 C216.97,275.42 216.987,274.944 216.993,274.815 L216.997,274.757 L217.02,274.774 C217.076,274.81 217.497,275.09 218.125,275.614 C218.813,276.176 219.724,277.009 220.694,278.073" fill="#FFFFFE"/>
    <path d="M240.43,253.109 C240.41,252.832 240.452,252.57 240.455,252.41 C240.464,252.246 240.472,252.157 240.472,252.157 C240.472,252.157 240.558,252.172 240.719,252.201 C240.877,252.236 241.143,252.258 241.407,252.344 C241.971,252.486 242.716,252.738 243.517,253.112 C243.873,253.278 244.234,253.483 244.593,253.706 C245.857,254.482 247.111,255.568 248.121,256.857 C249.416,258.516 250.307,260.494 250.654,262.228 C250.828,263.094 250.899,263.875 250.901,264.457 C250.921,264.734 250.882,264.997 250.879,265.154 C250.871,265.318 250.864,265.407 250.864,265.407 C250.864,265.407 250.778,265.392 250.615,265.363 C250.461,265.328 250.198,265.303 249.933,265.218 C249.371,265.075 248.628,264.821 247.825,264.448 C246.224,263.695 244.519,262.359 243.213,260.707 C242.308,259.556 241.617,258.25 241.152,256.978 C240.95,256.421 240.778,255.873 240.672,255.342 C240.501,254.474 240.433,253.69 240.43,253.109" fill="#FFFFFE"/>
    <path d="M484.272,249.004 C485.785,248.562 487.232,248.212 488.544,247.968 C490.41,247.623 492.004,247.455 493.136,247.389 C494.269,247.32 494.937,247.36 494.937,247.36 C494.937,247.36 494.454,247.828 493.584,248.54 C492.717,249.262 491.454,250.217 489.922,251.291 C488.148,252.525 485.981,253.856 483.646,255.174 L483.653,254.824 C483.693,253.055 483.917,251.093 484.272,249.004" fill="#FFFFFE"/>
    <path d="M478.576,257.889 L478.349,258.004 C477.281,258.543 476.214,259.086 475.146,259.581 C474.114,260.12 473.036,260.572 472.038,261.055 C471.057,261.552 470.021,261.951 469.126,262.406 C468.226,262.849 467.285,263.205 466.523,263.619 C465.749,264.024 464.921,264.319 464.327,264.689 C463.729,265.066 463.065,265.318 462.649,265.625 C461.799,266.223 461.188,266.606 461.188,266.606 C461.188,266.606 461.292,265.989 461.688,264.84 C461.887,264.263 462.247,263.682 462.674,262.969 C463.083,262.22 463.656,261.555 464.292,260.776 C464.921,259.978 465.691,259.294 466.506,258.509 C466.749,258.274 467.019,258.059 467.28,257.842 C469.618,257.889 472.012,257.92 474.505,257.92 C475.829,257.92 477.208,257.901 478.576,257.889" fill="#FFFFFE"/>
    <path d="M497.373,219.037 C499.958,218.559 502.406,218.273 504.524,218.141 C506.646,218.017 508.435,218.027 509.697,218.096 C510.958,218.156 511.692,218.269 511.692,218.269 C511.692,218.269 511.075,218.682 509.979,219.296 C508.885,219.918 507.308,220.736 505.404,221.627 C501.594,223.411 496.433,225.325 491.239,226.961 C491.136,226.992 491.036,227.021 490.935,227.052 C491.894,224.634 492.915,222.201 493.986,219.766 C495.131,219.496 496.267,219.242 497.373,219.037" fill="#FFFFFE"/>
    <path d="M507.292,198.402 C512.609,197.528 517.978,197.521 521.995,198.012 C524.006,198.259 525.679,198.589 526.85,198.882 C528.017,199.169 528.683,199.418 528.683,199.418 C528.683,199.418 528.037,199.711 526.912,200.115 C525.787,200.53 524.186,201.051 522.27,201.598 C520.355,202.135 518.123,202.677 515.742,203.173 C514.553,203.426 513.325,203.666 512.078,203.891 C510.833,204.109 509.568,204.331 508.307,204.552 C505.695,204.982 503.103,205.366 500.695,205.739 C501.894,203.419 503.1,201.176 504.302,199.023 C505.293,198.795 506.286,198.57 507.292,198.402" fill="#FFFFFE"/>
    <path d="M482.492,287.617 C479.439,289.887 475.249,292.51 471.065,294.964 C468.988,296.169 466.909,297.377 464.957,298.507 C463.029,299.632 461.267,300.701 459.846,301.706 C459.142,302.213 458.488,302.688 457.969,303.159 C457.452,303.638 457.022,304.086 456.699,304.503 C456.561,304.716 456.425,304.915 456.293,305.092 C456.181,305.273 456.119,305.439 456.05,305.572 C455.911,305.859 455.837,306.009 455.837,306.009 C455.837,306.009 455.777,305.859 455.692,305.549 C455.589,305.234 455.495,304.761 455.518,304.128 C455.545,303.514 455.637,302.725 455.936,301.914 C456.204,301.08 456.613,300.189 457.158,299.292 C457.701,298.395 458.37,297.503 459.13,296.61 C459.899,295.744 460.752,294.869 461.687,294.049 C462.62,293.231 463.609,292.421 464.666,291.689 C465.705,290.929 466.811,290.25 467.92,289.584 C472.388,286.971 477.216,285.203 480.996,284.346 C482.888,283.92 484.506,283.684 485.656,283.583 C486.806,283.47 487.488,283.488 487.488,283.488 C487.488,283.488 487.009,283.973 486.14,284.717 C485.273,285.472 484.017,286.482 482.492,287.617" fill="#FFFFFE"/>
    <path d="M466.796,335.018 C465.573,335.612 464.516,336.065 463.76,336.399 C463.374,336.573 463.088,336.702 462.879,336.814 C462.661,336.924 462.544,336.98 462.544,336.98 C462.544,336.98 462.548,336.857 462.58,336.62 C462.62,336.394 462.655,335.995 462.813,335.598 C463.068,334.734 463.582,333.582 464.345,332.365 C465.848,329.88 468.393,327.149 471.348,324.963 C472.093,324.423 472.847,323.896 473.626,323.426 C474.389,322.939 475.192,322.526 475.966,322.13 C477.532,321.358 479.086,320.779 480.485,320.419 C481.201,320.245 481.822,320.099 482.448,320.017 C483.06,319.931 483.596,319.891 484.021,319.886 C484.878,319.901 485.395,319.975 485.395,319.975 C485.395,319.975 485.085,320.398 484.497,321.025 C484.231,321.338 483.907,321.717 483.539,322.153 C483.183,322.548 482.753,323.05 482.292,323.528 C481.365,324.514 480.267,325.611 479.039,326.71 C477.815,327.817 476.456,328.911 475.065,329.964 C473.653,330.995 472.215,331.986 470.797,332.834 C469.393,333.698 468.008,334.424 466.796,335.018" fill="#FFFFFE"/>
    <path d="M475.518,358.852 C475.694,358.333 475.907,357.689 476.231,357.081 C476.575,356.512 476.98,355.901 477.449,355.267 C477.929,354.664 478.479,354.137 479.069,353.57 C479.661,352.984 480.299,352.504 480.98,352.046 C481.646,351.584 482.357,351.104 483.068,350.736 C483.798,350.374 484.522,350.008 485.262,349.699 C485.99,349.364 486.738,349.125 487.472,348.907 C488.93,348.477 490.34,348.16 491.563,348.063 C492.793,347.943 493.865,347.95 494.635,348.002 C495.401,348.042 495.868,348.133 495.868,348.133 C495.868,348.133 495.619,348.537 495.133,349.13 C494.651,349.734 493.935,350.527 493.018,351.354 C492.083,352.172 491.042,353.075 489.847,353.882 C489.253,354.293 488.623,354.683 487.997,355.085 C487.374,355.49 486.712,355.846 486.054,356.208 C485.363,356.527 484.773,356.926 484.105,357.227 C483.462,357.556 482.78,357.821 482.203,358.125 C481.613,358.424 480.961,358.66 480.406,358.912 C479.874,359.176 479.333,359.412 478.802,359.622 C478.305,359.843 477.895,360.089 477.45,360.29 C476.991,360.485 476.649,360.7 476.359,360.9 C475.759,361.292 475.315,361.553 475.315,361.553 C475.315,361.553 475.235,361.121 475.274,360.303 C475.291,359.891 475.317,359.356 475.518,358.852" fill="#FFFFFE"/>
    <path d="M490.395,380.454 C490.441,380.186 490.546,379.939 490.632,379.648 C490.825,379.081 491.061,378.411 491.391,377.735 C491.744,377.109 492.156,376.437 492.628,375.737 C493.09,375.011 493.682,374.428 494.28,373.759 C494.888,373.106 495.535,372.438 496.266,371.899 C496.972,371.316 497.731,370.776 498.484,370.227 C499.275,369.754 500.069,369.291 500.877,368.879 C501.681,368.458 502.473,368.06 503.309,367.776 C504.945,367.184 506.522,366.676 507.877,366.49 C509.237,366.285 510.419,366.224 511.266,366.229 C512.111,366.221 512.625,366.282 512.625,366.282 C512.625,366.282 512.338,366.714 511.783,367.35 C511.234,367.995 510.42,368.854 509.384,369.754 C508.337,370.661 507.245,371.691 505.952,372.612 C505.307,373.06 504.668,373.586 503.987,374.056 C503.318,374.549 502.603,374.984 501.901,375.442 C501.217,375.905 500.536,376.378 499.827,376.79 C499.112,377.203 498.448,377.627 497.791,378.032 C497.149,378.448 496.41,378.767 495.847,379.158 C495.247,379.523 494.648,379.858 494.069,380.162 C493.523,380.491 493.023,380.794 492.58,381.061 C492.084,381.326 491.692,381.575 491.393,381.814 C490.751,382.274 490.281,382.58 490.281,382.58 C490.281,382.58 490.227,382.107 490.309,381.211 C490.335,380.981 490.363,380.731 490.395,380.454" fill="#FFFFFE"/>
    <path d="M436.287,294.75 C436.287,294.75 438.089,295.999 440.554,298.074 C441.795,299.104 443.198,300.348 444.655,301.726 C446.119,303.098 447.638,304.605 449.105,306.162 C450.575,307.715 451.989,309.323 453.273,310.873 C454.563,312.415 455.713,313.91 456.644,315.238 C457.586,316.557 458.303,317.718 458.763,318.562 C459.002,318.983 459.146,319.335 459.246,319.584 C459.354,319.854 459.321,319.968 459.328,319.975 C459.328,319.983 459.277,319.819 459.1,319.666 C458.929,319.498 458.635,319.26 458.285,318.951 C457.566,318.342 456.526,317.495 455.319,316.432 C454.103,315.381 452.717,314.127 451.272,312.739 C449.82,311.359 448.306,309.855 446.841,308.301 C445.372,306.75 443.951,305.152 442.661,303.613 C441.362,302.083 440.198,300.607 439.247,299.296 C437.314,296.706 436.287,294.75 436.287,294.75" fill="#FFFFFE"/>
    <path d="M441.726,327.236 C442.854,328.127 444.127,329.206 445.447,330.408 C446.771,331.605 448.145,332.921 449.469,334.287 C450.797,335.653 452.069,337.072 453.222,338.442 C454.379,339.811 455.409,341.139 456.234,342.329 C457.073,343.509 457.704,344.553 458.105,345.32 C458.313,345.699 458.433,346.018 458.516,346.248 C458.603,346.495 458.562,346.597 458.568,346.601 C458.568,346.612 458.528,346.459 458.367,346.327 C458.217,346.178 457.944,345.975 457.626,345.709 C456.973,345.184 456.021,344.454 454.925,343.539 C453.815,342.633 452.557,341.544 451.246,340.337 C449.93,339.135 448.556,337.822 447.232,336.459 C445.909,335.096 444.63,333.685 443.473,332.32 C442.311,330.961 441.271,329.645 440.433,328.472 C438.715,326.15 437.847,324.369 437.847,324.369 C437.847,324.369 439.49,325.442 441.726,327.236" fill="#FFFFFE"/>
    <path d="M457.125,360.961 C458.591,362.336 460.107,363.842 461.576,365.398 C463.045,366.953 464.461,368.56 465.745,370.108 C467.033,371.652 468.184,373.146 469.114,374.475 C470.056,375.794 470.774,376.956 471.234,377.799 C471.474,378.22 471.618,378.571 471.719,378.821 C471.824,379.092 471.791,379.205 471.798,379.211 C471.798,379.219 471.749,379.056 471.57,378.903 C471.402,378.735 471.105,378.497 470.755,378.188 C470.038,377.58 468.996,376.73 467.791,375.669 C466.573,374.619 465.188,373.364 463.743,371.976 C462.291,370.595 460.777,369.091 459.312,367.538 C457.844,365.984 456.422,364.389 455.131,362.849 C453.833,361.318 452.67,359.843 451.718,358.533 C449.786,355.943 448.759,353.986 448.759,353.986 C448.759,353.986 450.561,355.237 453.023,357.311 C454.267,358.34 455.67,359.584 457.125,360.961" fill="#FFFFFE"/>
    <path d="M455.751,281.869 C454.733,280.734 453.602,279.369 452.444,277.873 C451.285,276.376 450.089,274.753 448.955,273.088 C447.818,271.425 446.74,269.724 445.775,268.098 C444.801,266.477 443.947,264.927 443.263,263.566 C441.866,260.865 441.168,258.908 441.166,258.908 C441.166,258.908 442.738,260.275 444.746,262.566 C445.766,263.7 446.896,265.062 448.052,266.561 C449.215,268.056 450.404,269.681 451.539,271.346 C452.676,273.009 453.749,274.712 454.717,276.34 C455.688,277.961 456.543,279.51 457.228,280.872 C458.624,283.573 459.328,285.53 459.328,285.53 C459.328,285.53 457.76,284.159 455.751,281.869" fill="#FFFFFE"/>
    <path d="M416.597,245.098 C413.038,244.038 410.778,243.129 409.68,242.642 C401.664,225.347 435.877,174.925 450.861,155.465 C452.116,155.29 454.729,155.069 458.679,154.947 C451.309,169.628 421.002,230.35 416.597,245.098" fill="#FFFFFE"/>
    <path d="M494.961,165.119 C497.064,165.667 499.869,167.42 502.625,169.46 C494.123,182.54 467.523,227.091 470.943,251.659 C466.771,251.618 462.828,251.503 459.127,251.329 C461.896,238.062 471.485,199.426 494.961,165.119" fill="#FFFFFE"/>
    <path d="M345.436,169.522 L198.626,157.967 L202.533,149.531 L343.395,149.346 L345.436,169.522" fill="#FFFFFE"/>
    <path d="M49.925,267.677 C51.422,267.059 52.688,266.584 53.586,266.257 C54.496,265.936 55.018,265.752 55.018,265.752 L56.474,271.815 C56.474,271.815 55.979,271.891 55.115,272.024 C54.239,272.169 52.979,272.39 51.472,272.705 C48.46,273.328 44.445,274.295 40.579,275.678 C39.618,276.035 38.635,276.367 37.72,276.779 C36.785,277.166 35.873,277.563 35.029,278.015 C34.152,278.424 33.356,278.893 32.613,279.365 C31.833,279.796 31.192,280.314 30.583,280.788 C29.937,281.227 29.464,281.742 29.025,282.194 C28.802,282.419 28.596,282.63 28.404,282.825 C28.222,283.03 28.105,283.251 27.973,283.432 C27.461,284.199 27.168,284.633 27.168,284.633 C27.168,284.633 27.376,284.146 27.741,283.297 C27.84,283.089 27.923,282.836 28.068,282.593 C28.222,282.36 28.393,282.108 28.574,281.836 C28.935,281.292 29.337,280.655 29.904,280.084 C30.443,279.481 31.023,278.807 31.733,278.216 C32.414,277.581 33.157,276.934 33.976,276.346 C34.773,275.711 35.633,275.122 36.524,274.544 C37.4,273.931 38.338,273.408 39.263,272.851 C42.993,270.674 46.929,268.905 49.925,267.677" fill="#FFFFFE"/>
    <path d="M32.064,306.462 C34.998,303.96 38.084,301.644 40.435,299.957 C41.61,299.111 42.607,298.425 43.311,297.945 C44.024,297.467 44.432,297.196 44.432,297.196 L47.317,302.725 C47.317,302.725 46.893,302.896 46.148,303.195 C45.402,303.504 44.329,303.952 43.052,304.521 C40.498,305.649 37.113,307.235 33.841,309.026 C32.213,309.929 30.608,310.874 29.153,311.836 C28.448,312.338 27.712,312.781 27.102,313.283 C26.488,313.781 25.851,314.216 25.367,314.706 C24.872,315.185 24.355,315.594 24.025,316.044 C23.683,316.485 23.304,316.838 23.12,317.198 C22.719,317.917 22.491,318.331 22.491,318.331 C22.491,318.331 22.634,317.872 22.882,317.076 C22.997,316.66 23.293,316.248 23.556,315.713 C23.809,315.164 24.23,314.662 24.644,314.055 C25.045,313.437 25.583,312.875 26.116,312.23 C26.641,311.574 27.277,310.983 27.898,310.314 C29.173,309.026 30.603,307.727 32.064,306.462" fill="#FFFFFE"/>
    <path d="M26.269,350.238 C25.848,350.891 25.609,351.262 25.609,351.262 C25.609,351.262 25.766,350.839 26.038,350.102 C26.386,349.397 26.928,348.4 27.698,347.282 C29.222,345.033 31.527,342.248 33.938,339.568 C36.344,336.886 38.846,334.294 40.75,332.375 C42.644,330.46 43.967,329.193 43.967,329.193 L47.782,334.126 C47.782,334.126 46.297,335.022 44.065,336.461 C41.839,337.889 38.891,339.838 36.021,341.888 C33.145,343.937 30.358,346.102 28.439,347.913 C27.475,348.813 26.754,349.634 26.269,350.238" fill="#FFFFFE"/>
    <path d="M47.534,370.418 C46.304,371.728 45.118,373.077 44.062,374.387 C43.561,375.055 43.033,375.689 42.606,376.323 C42.197,376.965 41.733,377.552 41.434,378.143 C41.135,378.732 40.758,379.256 40.596,379.766 C40.416,380.27 40.189,380.711 40.113,381.091 C39.978,381.874 39.9,382.322 39.9,382.322 C39.9,382.322 39.881,381.859 39.848,381.051 C39.841,380.642 39.969,380.168 40.046,379.596 C40.109,379.014 40.362,378.433 40.543,377.748 C40.727,377.059 41.059,376.386 41.34,375.628 C41.641,374.875 42.029,374.133 42.395,373.332 C43.179,371.768 44.085,370.138 45.045,368.542 C46.965,365.351 49.071,362.284 50.702,360.015 C51.531,358.885 52.224,357.947 52.708,357.292 C53.212,356.632 53.5,356.257 53.5,356.257 L57.993,360.581 C57.993,360.581 57.655,360.869 57.065,361.365 C56.478,361.885 55.637,362.628 54.628,363.518 C52.627,365.323 50.001,367.797 47.534,370.418" fill="#FFFFFE"/>
    <path d="M44.062,253.386 C43.451,253.729 42.94,254.067 42.544,254.378 C42.168,254.705 41.86,254.972 41.714,255.199 C41.547,255.418 41.457,255.537 41.457,255.537 C41.457,255.537 41.527,255.405 41.655,255.163 C41.767,254.902 42.027,254.588 42.359,254.185 C42.711,253.796 43.174,253.364 43.741,252.906 C44.315,252.461 44.986,251.986 45.74,251.505 C48.762,249.594 53.085,247.598 57.472,245.817 C61.863,244.033 66.326,242.455 69.693,241.323 C73.061,240.19 75.354,239.497 75.354,239.497 L76.672,245.591 C76.672,245.591 74.397,245.88 70.955,246.429 C67.519,246.979 62.935,247.781 58.405,248.793 C53.876,249.799 49.388,251.026 46.193,252.37 C45.394,252.707 44.681,253.052 44.062,253.386" fill="#FFFFFE"/>
    <path d="M13.316,280.374 L13.318,280.374 L12.604,280.059 L13.344,279.582 C13.456,279.582 13.553,279.589 13.661,279.647 C14.199,279.918 15.024,281.499 19.286,290.944 C21.75,296.405 24.242,302.075 24.449,302.594 L23.002,303.172 C22.54,302.019 14.514,283.891 12.978,281.203 C12.903,281.072 12.84,280.965 12.797,280.911 L13.316,280.374" fill="#FFFFFE"/>
    <path d="M8.027,311.074 C8.607,310.997 9.102,311.459 9.85,312.413 C12.375,315.626 25.107,336.404 24.449,338.052 L23.499,337.67 L22.957,337.77 C22.642,336.003 9.777,313.779 7.893,312.564 C7.928,312.588 8.072,312.646 8.248,312.618 L8.027,311.074" fill="#FFFFFE"/>
    <path d="M11.56,344.394 C16.713,345.61 31.06,364.509 31.675,366.353 L30.198,366.85 C29.529,365.075 15.494,346.836 11.172,345.904 C11.042,345.875 10.882,345.865 10.831,345.914 L9.73,344.81 C10.045,344.497 10.615,344.169 11.56,344.394" fill="#FFFFFE"/>
    <path d="M34.953,271.979 L33.413,272.212 C33.126,270.315 31.249,257.092 30.821,254.079 C30.765,253.688 30.733,253.461 30.733,253.461 L31.523,253.349 L32.278,253.243 C32.278,253.243 34.629,269.837 34.953,271.979" fill="#FFFFFE"/>
    <path d="M50.845,237.048 L53.378,237.048 L53.378,244.648 L50.845,244.648 z" fill="#FFFFFE"/>
    <path d="M386.028,311.17 C386.788,311.162 387.641,311.051 388.559,310.956 C389.014,310.88 389.487,310.801 389.978,310.717 C390.454,310.602 390.947,310.478 391.454,310.353 C391.949,310.201 392.446,310.015 392.952,309.837 C393.433,309.597 393.949,309.417 394.413,309.125 C396.338,308.072 397.943,306.409 398.887,304.384 C399.869,302.386 400.256,300.092 400.38,297.92 C400.506,295.742 400.357,293.653 400.182,291.847 C400.001,290.039 399.787,288.504 399.657,287.377 C399.541,286.226 399.476,285.569 399.476,285.569 L405.712,285.489 C405.712,285.489 405.678,286.086 405.62,287.13 C405.576,288.198 405.55,289.796 405.442,291.753 C405.327,293.711 405.136,296.034 404.601,298.517 C404.064,300.983 403.188,303.668 401.565,305.983 C400.758,307.128 399.806,308.188 398.705,309.018 C397.6,309.833 396.432,310.504 395.231,310.92 C394.646,311.166 394.034,311.285 393.463,311.461 C392.874,311.574 392.303,311.688 391.748,311.77 C391.19,311.819 390.647,311.866 390.123,311.913 C389.603,311.918 389.1,311.925 388.615,311.93 C387.653,311.88 386.776,311.856 386.01,311.745 C385.241,311.636 384.572,311.582 384.03,311.459 C382.946,311.253 382.328,311.133 382.328,311.133 C382.328,311.133 382.957,311.154 384.056,311.193 C384.602,311.23 385.271,311.18 386.028,311.17" fill="#FFFFFE"/>
    <path d="M414.486,274.238 L414.604,280.475 L374.015,278.786 L414.486,274.238" fill="#FFFFFE"/>
    <path d="M416.044,263.329 L416.163,269.563 L375.574,267.874 L416.044,263.329" fill="#FFFFFE"/>
    <path d="M175.52,199.05 C176.812,199.05 177.858,200.293 177.858,201.584 C177.858,202.875 176.812,204.117 175.52,204.117 L102.252,204.117 C100.963,204.117 99.917,202.875 99.917,201.584 C99.917,200.293 100.963,199.05 102.252,199.05 L175.52,199.05" fill="#FFFFFE"/>
    <path d="M106.93,216.783 C105.639,216.783 104.592,215.541 104.592,214.25 C104.592,212.959 105.639,211.716 106.93,211.716 L178.638,211.716 C179.929,211.716 180.975,212.959 180.975,214.25 C180.975,215.541 179.929,216.783 178.638,216.783 L106.93,216.783" fill="#FFFFFE"/>
    <path d="M180.196,228.182 L110.048,228.182 C108.758,228.182 107.709,227.574 107.709,226.283 C107.709,224.991 108.758,224.382 110.048,224.382 L180.196,224.382 C181.488,224.382 182.536,224.991 182.536,226.283 C182.536,227.574 181.488,228.182 180.196,228.182" fill="#FFFFFE"/>
    <path d="M183.314,242.115 L114.725,242.115 C113.434,242.115 112.386,241.506 112.386,240.215 C112.386,238.924 113.434,238.316 114.725,238.316 L183.314,238.316 C184.604,238.316 185.653,238.924 185.653,240.215 C185.653,241.506 184.604,242.115 183.314,242.115" fill="#FFFFFE"/>
    <path d="M117.842,250.981 L184.873,250.981 C186.163,250.981 187.212,251.59 187.212,252.881 C187.212,254.173 186.163,254.782 184.873,254.782 L117.842,254.782 C116.551,254.782 115.504,254.173 115.504,252.881 C115.504,251.59 116.551,250.981 117.842,250.981" fill="#FFFFFE"/>
    <path d="M122.519,262.381 L187.991,262.381 C189.281,262.381 190.329,263.623 190.329,264.915 C190.329,266.207 189.281,267.448 187.991,267.448 L122.519,267.448 C121.226,267.448 120.18,266.207 120.18,264.915 C120.18,263.623 121.226,262.381 122.519,262.381" fill="#FFFFFE"/>
    <path d="M345.604,218.419 C345.083,218.532 323.169,208.96 323.169,208.96 L323.169,181.487 L346.012,181.271 C346.012,181.271 346.123,218.307 345.604,218.419" fill="#FFFFFE"/>
    <path d="M112.662,359.209 L112.739,359.209 L112.662,359.209 z M68.793,318.719 C68.783,319.294 68.776,319.877 68.765,320.462 C68.801,323.103 68.941,325.677 69.274,328.3 C69.936,333.546 71.265,338.937 73.44,344.165 C75.584,349.402 78.602,354.463 82.486,358.959 C86.365,363.443 91.182,367.342 96.708,370.022 C99.467,371.361 102.388,372.397 105.377,373.06 C106.875,373.378 108.381,373.636 109.892,373.79 C110.645,373.885 111.4,373.9 112.152,373.956 L112.716,373.988 L113.372,373.992 L114.286,374.004 C117.499,373.974 120.317,373.581 123.169,372.903 C125.984,372.225 128.656,371.261 131.127,370.098 C136.084,367.765 140.218,364.668 143.57,361.449 C146.935,358.224 149.522,354.857 151.546,351.74 C153.58,348.621 155.028,345.729 156.105,343.309 C157.191,340.889 157.859,338.92 158.327,337.585 C158.752,336.234 158.98,335.513 158.98,335.513 L140.891,330.745 C140.891,330.745 140.768,331.271 140.535,332.26 C140.268,333.235 139.904,334.687 139.259,336.459 C138.623,338.233 137.754,340.358 136.5,342.633 C135.254,344.91 133.643,347.366 131.555,349.689 C129.477,352.011 126.932,354.226 123.933,355.926 C122.436,356.774 120.831,357.506 119.133,358.058 C117.479,358.607 115.552,359.012 113.909,359.164 L112.999,359.253 L112.77,359.551 L112.655,359.911 L112.386,359.911 C111.916,359.911 111.439,359.597 110.965,359.565 C110.012,359.543 109.057,359.209 108.095,359.087 C106.172,358.813 104.243,358.237 102.346,357.49 C98.551,355.999 94.919,353.518 91.783,350.391 C88.645,347.265 85.966,343.496 83.944,339.421 C81.89,335.361 80.46,331.003 79.583,326.661 C79.141,324.487 78.873,322.291 78.681,320.264 C78.647,319.679 78.615,319.099 78.582,318.519 L78.557,318.089 L78.545,317.87 C78.542,317.831 78.542,318.026 78.542,317.919 L78.538,317.872 L78.53,317.778 L78.461,317.019 C78.354,316.006 78.27,314.998 78.28,313.998 C78.208,309.993 78.805,306.107 79.834,302.586 C81.904,295.508 85.386,289.987 87.949,286.31 C89.257,284.465 90.353,283.067 91.125,282.118 C91.901,281.172 92.317,280.67 92.317,280.67 C92.317,280.67 91.8,281.066 90.833,281.812 C89.869,282.563 88.462,283.701 86.741,285.235 C83.349,288.325 78.518,293.022 74.423,300.281 C72.394,303.901 70.639,308.193 69.599,313.045 C69.313,314.255 69.121,315.501 68.962,316.772 L68.833,317.732 L68.815,317.851 L68.808,317.912 L68.804,318.068 L68.799,318.286 L68.793,318.719" fill="#FFFFFE"/>
    <path d="M177.852,281.217 C178.38,281.277 178.709,281.287 179.383,281.41 C180.644,281.65 180.723,281.714 180.782,281.719 L178.571,287.545 L177.96,287.407 C177.712,287.365 177.403,287.307 177.042,287.244 C176.574,287.169 176.037,287.083 175.436,286.988 C174.159,286.794 172.572,286.568 170.743,286.323 C169.081,286.097 167.22,285.856 165.192,285.595 C156.67,284.51 145.268,283.159 133.863,281.842 C111.044,279.275 88.224,276.71 88.224,276.71 C88.224,276.71 111.17,277.722 134.118,278.736 C145.591,279.275 157.063,279.849 165.679,280.359 C166.679,280.419 167.634,280.475 168.549,280.532 C171.595,280.72 174.172,280.896 176.131,281.062 C176.777,281.118 177.351,281.17 177.852,281.217" fill="#FFFFFE"/>
  </g>
</svg>
